<?xml version="1.0" encoding="UTF-8" standalone="no"?>
<svg
   width="700pt"
   height="700pt"
   version="1.1"
   viewBox="0 0 700 700"
   id="svg158"
   sodipodi:docname="bez_textu.svg"
   inkscape:version="1.1.2 (b8e25be833, 2022-02-05)"
   xmlns:inkscape="http://www.inkscape.org/namespaces/inkscape"
   xmlns:sodipodi="http://sodipodi.sourceforge.net/DTD/sodipodi-0.dtd"
   xmlns="http://www.w3.org/2000/svg"
   xmlns:svg="http://www.w3.org/2000/svg">
  <sodipodi:namedview
     id="namedview160"
     pagecolor="#ffffff"
     bordercolor="#666666"
     borderopacity="1.0"
     inkscape:pageshadow="2"
     inkscape:pageopacity="0.0"
     inkscape:pagecheckerboard="0"
     inkscape:document-units="pt"
     showgrid="false"
     inkscape:zoom="0.83785714"
     inkscape:cx="467.26343"
     inkscape:cy="371.185"
     inkscape:window-width="1920"
     inkscape:window-height="986"
     inkscape:window-x="-11"
     inkscape:window-y="-11"
     inkscape:window-maximized="1"
     inkscape:current-layer="g156" />
  <defs
     id="defs68">
    <symbol
       id="i"
       overflow="visible">
      <path
         d="m9.375-0.5625c-0.48047 0.25-0.98438 0.4375-1.5156 0.5625-0.52344 0.13281-1.0625 0.20312-1.625 0.20312-1.7109 0-3.0586-0.47266-4.0469-1.4219-0.99219-0.95703-1.4844-2.25-1.4844-3.875 0-1.6328 0.49219-2.9258 1.4844-3.875 0.98828-0.94531 2.3359-1.4219 4.0469-1.4219 0.5625 0 1.1016 0.0625 1.625 0.1875 0.53125 0.125 1.0352 0.32031 1.5156 0.57812v2.1094c-0.49219-0.33203-0.97656-0.57812-1.4531-0.73438-0.46875-0.15625-0.96484-0.23438-1.4844-0.23438-0.9375 0-1.6797 0.30469-2.2188 0.90625-0.53125 0.60547-0.79688 1.4336-0.79688 2.4844 0 1.0547 0.26562 1.8828 0.79688 2.4844 0.53906 0.60547 1.2812 0.90625 2.2188 0.90625 0.51953 0 1.0156-0.078125 1.4844-0.23438 0.47656-0.15625 0.96094-0.39844 1.4531-0.73438z"
         id="path2" />
    </symbol>
    <symbol
       id="d"
       overflow="visible">
      <path
         d="m6.8594-5.5781c-0.21094-0.09375-0.42188-0.16016-0.64062-0.20312-0.21094-0.050781-0.42188-0.078125-0.64062-0.078125-0.625 0-1.1094 0.20312-1.4531 0.60938-0.33594 0.39844-0.5 0.96875-0.5 1.7188v3.5312h-2.4531v-7.6562h2.4531v1.25c0.3125-0.5 0.67188-0.86328 1.0781-1.0938 0.40625-0.22656 0.89453-0.34375 1.4688-0.34375 0.082031 0 0.17188 0.007812 0.26562 0.015625 0.09375 0 0.23438 0.015625 0.42188 0.046875z"
         id="path5" />
    </symbol>
    <symbol
       id="a"
       overflow="visible">
      <path
         d="m8.8125-3.8438v0.6875h-5.7188c0.0625 0.57422 0.26953 1.0078 0.625 1.2969 0.35156 0.29297 0.84766 0.4375 1.4844 0.4375 0.51953 0 1.0508-0.078125 1.5938-0.23438 0.53906-0.15625 1.0938-0.39062 1.6562-0.70312v1.8906c-0.57422 0.21875-1.1523 0.38672-1.7344 0.5-0.57422 0.11328-1.1523 0.17188-1.7344 0.17188-1.3867 0-2.4648-0.35156-3.2344-1.0625-0.76172-0.70703-1.1406-1.6953-1.1406-2.9688 0-1.2383 0.375-2.2188 1.125-2.9375s1.7852-1.0781 3.1094-1.0781c1.207 0 2.1719 0.36719 2.8906 1.0938 0.71875 0.71875 1.0781 1.6875 1.0781 2.9062zm-2.5156-0.8125c0-0.46875-0.13672-0.84375-0.40625-1.125-0.27344-0.28906-0.625-0.4375-1.0625-0.4375-0.46875 0-0.85547 0.13672-1.1562 0.40625-0.29297 0.26172-0.47656 0.64844-0.54688 1.1562z"
         id="path8" />
    </symbol>
    <symbol
       id="c"
       overflow="visible">
      <path
         d="m4.6094-3.4531c-0.51172 0-0.89844 0.089844-1.1562 0.26562-0.26172 0.17969-0.39062 0.43359-0.39062 0.76562 0 0.3125 0.10156 0.55859 0.3125 0.73438 0.20703 0.17969 0.5 0.26562 0.875 0.26562 0.45703 0 0.84375-0.16406 1.1562-0.5 0.3125-0.33203 0.46875-0.75 0.46875-1.25v-0.28125zm3.7344-0.92188v4.375h-2.4688v-1.1406c-0.32422 0.46875-0.69531 0.8125-1.1094 1.0312-0.40625 0.20703-0.90234 0.3125-1.4844 0.3125-0.80469 0-1.4492-0.22656-1.9375-0.6875-0.49219-0.46875-0.73438-1.0703-0.73438-1.8125 0-0.89453 0.30469-1.5508 0.92188-1.9688 0.61328-0.42578 1.582-0.64062 2.9062-0.64062h1.4375v-0.1875c0-0.38281-0.15234-0.66406-0.45312-0.84375-0.30469-0.1875-0.77734-0.28125-1.4219-0.28125-0.53125 0-1.0234 0.054688-1.4688 0.15625-0.44922 0.10547-0.87109 0.26562-1.2656 0.48438v-1.875c0.53125-0.125 1.0547-0.21875 1.5781-0.28125 0.53125-0.070313 1.0625-0.10938 1.5938-0.10938 1.3828 0 2.3789 0.27734 2.9844 0.82812 0.61328 0.54297 0.92188 1.4219 0.92188 2.6406z"
         id="path11" />
    </symbol>
    <symbol
       id="e"
       overflow="visible">
      <path
         d="m3.8438-9.8281v2.1719h2.5312v1.75h-2.5312v3.25c0 0.35547 0.066406 0.59375 0.20312 0.71875 0.14453 0.125 0.42969 0.1875 0.85938 0.1875h1.25v1.75h-2.0938c-0.96875 0-1.6562-0.19531-2.0625-0.59375-0.39844-0.40625-0.59375-1.0938-0.59375-2.0625v-3.25h-1.2188v-1.75h1.2188v-2.1719z"
         id="path14" />
    </symbol>
    <symbol
       id="k"
       overflow="visible">
      <path
         d="m6.3906-6.5312v-4.1094h2.4531v10.641h-2.4531v-1.1094c-0.34375 0.44922-0.71875 0.78125-1.125 1-0.40625 0.20703-0.875 0.3125-1.4062 0.3125-0.9375 0-1.7148-0.375-2.3281-1.125-0.60547-0.75-0.90625-1.7188-0.90625-2.9062 0-1.1758 0.30078-2.1406 0.90625-2.8906 0.61328-0.75 1.3906-1.125 2.3281-1.125 0.53125 0 1 0.10938 1.4062 0.32812 0.40625 0.21094 0.78125 0.53906 1.125 0.98438zm-1.625 4.9531c0.53125 0 0.92969-0.19141 1.2031-0.57812 0.28125-0.38281 0.42188-0.94141 0.42188-1.6719 0-0.72656-0.14062-1.2812-0.42188-1.6562-0.27344-0.38281-0.67188-0.57812-1.2031-0.57812-0.51172 0-0.90625 0.19531-1.1875 0.57812-0.27344 0.375-0.40625 0.92969-0.40625 1.6562 0 0.73047 0.13281 1.2891 0.40625 1.6719 0.28125 0.38672 0.67578 0.57812 1.1875 0.57812z"
         id="path17" />
    </symbol>
    <symbol
       id="j"
       overflow="visible">
      <path
         d="m5.25-1.5781c0.51953 0 0.91406-0.19141 1.1875-0.57812 0.28125-0.38281 0.42188-0.94141 0.42188-1.6719 0-0.72656-0.14062-1.2812-0.42188-1.6562-0.27344-0.38281-0.66797-0.57812-1.1875-0.57812-0.52344 0-0.92188 0.19531-1.2031 0.57812-0.28125 0.38672-0.42188 0.9375-0.42188 1.6562 0 0.73047 0.14062 1.2891 0.42188 1.6719 0.28125 0.38672 0.67969 0.57812 1.2031 0.57812zm-1.625-4.9531c0.33203-0.44531 0.70312-0.77344 1.1094-0.98438 0.41406-0.21875 0.89062-0.32812 1.4219-0.32812 0.94531 0 1.7227 0.375 2.3281 1.125 0.60156 0.75 0.90625 1.7148 0.90625 2.8906 0 1.1875-0.30469 2.1562-0.90625 2.9062-0.60547 0.75-1.3828 1.125-2.3281 1.125-0.53125 0-1.0078-0.10547-1.4219-0.3125-0.40625-0.21875-0.77734-0.55078-1.1094-1v1.1094h-2.4531v-10.641h2.4531z"
         id="path20" />
    </symbol>
    <symbol
       id="f"
       overflow="visible">
      <path
         d="m0.17188-7.6562h2.4531l2.0469 5.1875 1.75-5.1875h2.4531l-3.2188 8.375c-0.32422 0.85156-0.70312 1.4453-1.1406 1.7812-0.42969 0.34375-0.99609 0.51562-1.7031 0.51562h-1.4062v-1.5938h0.76562c0.41406 0 0.71875-0.070313 0.90625-0.20312 0.1875-0.13672 0.33203-0.375 0.4375-0.71875l0.0625-0.20312z"
         id="path23" />
    </symbol>
    <symbol
       id="b"
       overflow="visible">
      <path
         d="m4.8125-6.0938c-0.54297 0-0.95312 0.19922-1.2344 0.59375-0.28125 0.38672-0.42188 0.94531-0.42188 1.6719 0 0.74219 0.14062 1.3086 0.42188 1.7031 0.28125 0.38672 0.69141 0.57812 1.2344 0.57812 0.53906 0 0.95312-0.19141 1.2344-0.57812 0.28125-0.39453 0.42188-0.96094 0.42188-1.7031 0-0.72656-0.14062-1.2852-0.42188-1.6719-0.28125-0.39453-0.69531-0.59375-1.2344-0.59375zm0-1.75c1.3203 0 2.3516 0.35938 3.0938 1.0781 0.73828 0.71094 1.1094 1.6875 1.1094 2.9375 0 1.2617-0.37109 2.25-1.1094 2.9688-0.74219 0.71094-1.7734 1.0625-3.0938 1.0625-1.3125 0-2.3438-0.35156-3.0938-1.0625-0.74219-0.71875-1.1094-1.707-1.1094-2.9688 0-1.25 0.36719-2.2266 1.1094-2.9375 0.75-0.71875 1.7812-1.0781 3.0938-1.0781z"
         id="path26" />
    </symbol>
    <symbol
       id="v"
       overflow="visible">
      <path
         d="m1.1719-10.641h2.4531v10.641h-2.4531z"
         id="path29" />
    </symbol>
    <symbol
       id="u"
       overflow="visible">
      <path
         d="m1.1719-7.6562h2.4531v7.6562h-2.4531zm0-2.9844h2.4531v2h-2.4531z"
         id="path32" />
    </symbol>
    <symbol
       id="h"
       overflow="visible">
      <path
         d="m8.875-4.6562v4.6562h-2.4688v-3.5625c0-0.66406-0.015625-1.125-0.046875-1.375-0.023437-0.25-0.070313-0.42969-0.14062-0.54688-0.09375-0.16406-0.22656-0.28906-0.39062-0.375-0.16797-0.09375-0.35547-0.14062-0.5625-0.14062-0.51172 0-0.91406 0.19922-1.2031 0.59375-0.29297 0.39844-0.4375 0.94531-0.4375 1.6406v3.7656h-2.4531v-7.6562h2.4531v1.125c0.36328-0.44531 0.75391-0.77344 1.1719-0.98438 0.41406-0.21875 0.875-0.32812 1.375-0.32812 0.88281 0 1.5547 0.27344 2.0156 0.8125 0.45703 0.54297 0.6875 1.3359 0.6875 2.375z"
         id="path35" />
    </symbol>
    <symbol
       id="t"
       overflow="visible">
      <path
         d="m1.2812-10.203h3.3594l2.3125 5.4531 2.3438-5.4531h3.3438v10.203h-2.4844v-7.4688l-2.3594 5.5h-1.6719l-2.3438-5.5v7.4688h-2.5z"
         id="path38" />
    </symbol>
    <symbol
       id="g"
       overflow="visible">
      <path
         d="m7.3594-7.4219v2c-0.33594-0.22656-0.66797-0.39453-1-0.5-0.33594-0.11328-0.68359-0.17188-1.0469-0.17188-0.67969 0-1.2109 0.20312-1.5938 0.60938-0.375 0.39844-0.5625 0.94922-0.5625 1.6562 0 0.71875 0.1875 1.2812 0.5625 1.6875 0.38281 0.39844 0.91406 0.59375 1.5938 0.59375 0.38281 0 0.75-0.054687 1.0938-0.17188 0.34375-0.11328 0.66016-0.28516 0.95312-0.51562v2.0156c-0.38672 0.13672-0.77734 0.23828-1.1719 0.3125-0.38672 0.070312-0.77734 0.10938-1.1719 0.10938-1.3867 0-2.4688-0.35156-3.25-1.0625-0.77344-0.70703-1.1562-1.6953-1.1562-2.9688 0-1.2578 0.38281-2.2422 1.1562-2.9531 0.78125-0.70703 1.8633-1.0625 3.25-1.0625 0.39453 0 0.78516 0.039062 1.1719 0.10938 0.39453 0.074219 0.78516 0.17969 1.1719 0.3125z"
         id="path41" />
    </symbol>
    <symbol
       id="s"
       overflow="visible">
      <path
         d="m1.1719-10.641h2.4531v5.7969l2.8125-2.8125h2.8438l-3.7344 3.5156 4.0312 4.1406h-2.9688l-2.9844-3.1875v3.1875h-2.4531z"
         id="path44" />
    </symbol>
    <symbol
       id="r"
       overflow="visible">
      <path
         d="m6.2188-10.641v1.6094h-1.3594c-0.34375 0-0.58594 0.0625-0.71875 0.1875-0.13672 0.125-0.20312 0.34375-0.20312 0.65625v0.53125h2.0781v1.75h-2.0781v5.9062h-2.4531v-5.9062h-1.2188v-1.75h1.2188v-0.53125c0-0.83203 0.22656-1.4453 0.6875-1.8438 0.46875-0.40625 1.1914-0.60938 2.1719-0.60938z"
         id="path47" />
    </symbol>
    <symbol
       id="q"
       overflow="visible">
      <path
         d="m8.2656-6.3906c0.3125-0.46875 0.67969-0.82812 1.1094-1.0781 0.42578-0.25 0.89453-0.375 1.4062-0.375 0.875 0 1.5391 0.27344 2 0.8125 0.46875 0.54297 0.70312 1.3359 0.70312 2.375v4.6562h-2.4688v-4c0.007813-0.050781 0.015625-0.10938 0.015625-0.17188v-0.28125c0-0.53906-0.078125-0.92969-0.23438-1.1719-0.15625-0.25-0.41797-0.375-0.78125-0.375-0.46094 0-0.82031 0.19531-1.0781 0.57812-0.25 0.38672-0.38281 0.9375-0.39062 1.6562v3.7656h-2.4531v-4c0-0.84375-0.074219-1.3828-0.21875-1.625-0.14844-0.25-0.40625-0.375-0.78125-0.375-0.46875 0-0.83594 0.19531-1.0938 0.57812-0.25 0.38672-0.375 0.9375-0.375 1.6562v3.7656h-2.4688v-7.6562h2.4688v1.125c0.30078-0.4375 0.64453-0.76562 1.0312-0.98438 0.39453-0.21875 0.82812-0.32812 1.2969-0.32812 0.51953 0 0.98438 0.13281 1.3906 0.39062 0.40625 0.25 0.71094 0.60547 0.92188 1.0625z"
         id="path50" />
    </symbol>
    <symbol
       id="p"
       overflow="visible">
      <path
         d="m8.875-4.6562v4.6562h-2.4688v-3.5625c0-0.66406-0.015625-1.125-0.046875-1.375-0.023437-0.25-0.070313-0.42969-0.14062-0.54688-0.09375-0.16406-0.22656-0.28906-0.39062-0.375-0.16797-0.09375-0.35547-0.14062-0.5625-0.14062-0.51172 0-0.91406 0.19922-1.2031 0.59375-0.29297 0.39844-0.4375 0.94531-0.4375 1.6406v3.7656h-2.4531v-10.641h2.4531v4.1094c0.36328-0.44531 0.75391-0.77344 1.1719-0.98438 0.41406-0.21875 0.875-0.32812 1.375-0.32812 0.88281 0 1.5547 0.27344 2.0156 0.8125 0.45703 0.54297 0.6875 1.3359 0.6875 2.375z"
         id="path53" />
    </symbol>
    <symbol
       id="o"
       overflow="visible">
      <path
         d="m1.2812-10.203h2.9375l3.7188 7v-7h2.5v10.203h-2.9375l-3.7188-7v7h-2.5z"
         id="path56" />
    </symbol>
    <symbol
       id="n"
       overflow="visible">
      <path
         d="m1.0938-2.9844v-4.6719h2.4688v0.76562c0 0.41797-0.007812 0.9375-0.015625 1.5625v1.25c0 0.61719 0.015625 1.0586 0.046875 1.3281 0.03125 0.27344 0.082031 0.46875 0.15625 0.59375 0.10156 0.15625 0.23438 0.28125 0.39062 0.375 0.16406 0.085938 0.35156 0.125 0.5625 0.125 0.50781 0 0.91016-0.19141 1.2031-0.57812 0.28906-0.39453 0.4375-0.94141 0.4375-1.6406v-3.7812h2.4531v7.6562h-2.4531v-1.1094c-0.36719 0.44922-0.75781 0.78125-1.1719 1-0.41797 0.20703-0.87109 0.3125-1.3594 0.3125-0.88672 0-1.5625-0.26953-2.0312-0.8125-0.46094-0.53906-0.6875-1.332-0.6875-2.375z"
         id="path59" />
    </symbol>
    <symbol
       id="m"
       overflow="visible">
      <path
         d="m1.2812-10.203h4.375c1.3008 0 2.2969 0.28906 2.9844 0.85938 0.69531 0.57422 1.0469 1.3984 1.0469 2.4688 0 1.0742-0.35156 1.8984-1.0469 2.4688-0.6875 0.57422-1.6836 0.85938-2.9844 0.85938h-1.7344v3.5469h-2.6406zm2.6406 1.9062v2.8438h1.4531c0.50781 0 0.89844-0.11719 1.1719-0.35938 0.28125-0.25 0.42188-0.60156 0.42188-1.0625 0-0.45703-0.14062-0.80469-0.42188-1.0469-0.27344-0.25-0.66406-0.375-1.1719-0.375z"
         id="path62" />
    </symbol>
    <symbol
       id="l"
       overflow="visible">
      <path
         d="m1.1719-7.6562h2.4531v7.5156c0 1.0312-0.25 1.8125-0.75 2.3438-0.49219 0.53906-1.1992 0.8125-2.125 0.8125h-1.2188v-1.5938h0.42188c0.46875 0 0.78516-0.10938 0.95312-0.32812 0.17578-0.21094 0.26562-0.62109 0.26562-1.2344zm0-2.9844h2.4531v2h-2.4531z"
         id="path65" />
    </symbol>
  </defs>
  <g
     id="g156">
    <g
       id="g374">
      <path
         d="m318.22 238.56c2.4375 2.1289 6.6094-1.4844 4.0586-3.6953h0.003906c-20.031-17.152-36.637-37.941-48.945-61.262-11.984-22.961-30.129-62.887-13.215-87.219 14.559-21.031 38.219-9.3828 48.242 8.8164 7.168 13.02 11.199 28.391 14.477 42.758 6.7188 28.645 9.2969 58.043 11.844 87.105 0.28125 3.332 5.6016 1.9023 5.3203-1.2891-3.3594-38.445-6.7461-77.477-19.602-114.07-7.8945-22.398-29.176-54.348-56.168-34.805-25.93 18.762-14.363 56.727-4.8164 81.199l0.003906 0.003906c12.645 31.836 32.82 60.129 58.797 82.457z"
         id="path70" />
      <path
         d="m187.82 245.34c39.199 13.578 81.34 14.363 122.36 15.121 3.332 0 3.9766-5.125 0.39062-5.1797-31.781-0.58984-63.867-1.1758-95.199-7.8125-15.523-3.082-30.59-8.1445-44.828-15.066-15.148-7.6445-34.301-24.473-26.234-43.793 14.336-34.215 76.523-3.1055 98.25 7.3945 27.848 13.371 53.727 30.5 76.918 50.902 0.15234 0.12109 0.32031 0.21484 0.50391 0.28125-1.793 4.8867-3.1328 9.9297-4.0039 15.062-41.316-1.332-82.527 4.8945-121.61 18.371-22.398 7.8125-68.32 24.922-54.375 57.484 13.523 31.613 56.617 18.93 80.109 9.2969 36.121-14.812 67.199-39.199 97.441-63.363 0 0.25391 0.22266 0.50391 0.30859 0.75781l-0.003906-0.003907c-30.484 21.312-57.277 47.461-79.324 77.418-14.645 20.047-48.41 64.848-18.059 86.547 27.777 19.906 56.363-14 69.523-34.777 21.699-34.215 32.426-73.809 42.758-112.62v0.003906c1.1055 0.54297 2.2578 0.99219 3.4414 1.3438-10.547 38.031-14.402 77.605-11.395 116.96 1.875 23.715 5.9062 74.594 41.301 71.035 33.234-3.3047 34.133-45.078 31.246-69.746-4.8164-40.992-22.398-79.184-39.199-116.29-1.3711-2.9961-6.2422-0.42188-4.8711 2.5742 13.02 28.449 26.152 57.148 33.602 87.613 5.9648 23.941 17.922 82.684-18.031 90.242-39.004 8.2305-39.199-63.645-39.703-86.801l-0.003906 0.003906c-0.46094-31.969 3.6523-63.836 12.207-94.641 7.0273 0.55469 14.082-0.69141 20.496-3.6133 12.387 35.75 30.664 69.172 54.066 98.898 15.23 19.207 46.957 59.809 75.348 37.633 27.523-21.449 1.793-58.801-14.895-77.59-26.824-29.961-61.77-51.102-95.844-71.707 1.2266-1.375 2.3398-2.8438 3.332-4.3984 0.15625 0.21875 0.35547 0.40234 0.58984 0.53125 35 20.496 70.59 41.16 109.84 52.387 23.156 6.6094 63.699 9.8008 68.098-23.043 4.3945-32.844-35.367-47.039-60.484-53.785-37.574-9.7109-76.91-10.391-114.8-1.9883l-0.36328 0.16797h-0.003906c-0.046875-0.19141-0.11328-0.37891-0.19531-0.55859 0.41797 0.082031 0.84375 0.082031 1.2617 0 38.586-10.023 77.727-20.273 112.87-39.676 21.086-11.648 51.406-38.586 28-63.559-23.406-24.977-62.914-3.9492-85.848 10.359v-0.003906c-29.316 18.48-54.055 43.371-72.352 72.801-1.3164-1.0078-2.8008-1.9609-4.0898-2.8008 1.2539 0.55859 2.7266 0.20312 3.5859-0.86719 23.688-30.492 47.602-61.402 63.168-97.047 9.2969-21.363 15.988-58.801-16.465-63.617-29.566-4.3672-46.93 26.797-56.785 49.449-14.125 33.141-19.617 69.324-15.957 105.17-4.1797 0.27344-8.2422 1.5-11.875 3.582-0.625-0.86719-1.6562-1.3438-2.7227-1.2578-1.0625 0.085938-2.0078 0.72266-2.4844 1.6797-1.625 3.5-3.3047 7.2227-4.8438 11.199-27.961-24.492-59.754-44.234-94.109-58.438-23.016-9.4062-70-30.156-87.023 0.28125-17.441 31.332 23.578 53.367 46.957 61.488zm126.67 34.664c-22.82 18.117-45.809 36.398-71.316 50.398-23.238 13.02-75.602 39.703-95.562 9.5469-24.219-36.398 49.477-56 72.465-61.992l-0.003906 0.003906c31.062-8.0781 63.121-11.672 95.203-10.668-0.30859 4.0039-0.035156 8.0312 0.8125 11.953-0.60156 0.074218-1.1602 0.33984-1.5977 0.75781zm13.383 19.066c-7.5312 28.363-15.176 56.926-27.215 83.832-10.555 23.574-41.16 83.469-75.039 62.105-32.453-20.469 10.246-71.734 25.898-91.336 19.699-24.598 42.785-46.281 68.574-64.398 1.2305 1.9922 2.6445 3.8672 4.2266 5.5977 1.1562 1.2656 2.4336 2.418 3.8086 3.4453-0.12891 0.23438-0.21094 0.49219-0.25391 0.75391zm161.2 132.13c-29.203 25.031-67.004-31.754-81.199-52.109v0.003906c-17.309-25.082-31.129-52.398-41.074-81.203 3.0547-1.6133 5.9688-3.4883 8.707-5.5977l1.1484-1.0078c0.20703 0.3125 0.48438 0.57031 0.8125 0.75391 26.066 15.766 52.359 31.641 75.32 51.773 18.984 16.352 65.938 61.906 36.285 87.387zm-124.52-138.04c-1.707-1.0938-4.4805 0-4.2852 2.0703-17.586 7.4492-35.086 1.3711-39.199-18.93-2.6328-13.328 2.6328-26.516 8.2305-38.613l0.003906 0.003906c0.64062 0.003906 1.2617-0.21484 1.7617-0.61719 15.43-12.434 34.719-0.50391 44.969 12.488 13.832 17.305 5.4609 34.273-11.48 43.543zm23.492-30.801c30.508-6.7227 62.02-7.5 92.82-2.2969 25.199 4.4258 74.73 14.672 75.906 47.348 0.92578 25.199-26.738 30.465-46.34 26.824h0.003906c-14.652-3.0469-28.961-7.5664-42.703-13.496-28-11.395-54.098-26.656-80.078-42-0.40234-0.22656-0.85547-0.35156-1.3164-0.36328 2.1562-5.0859 2.7422-10.703 1.6797-16.129zm-13.328-22.598v0.003906c14.375-23.387 32.945-43.918 54.77-60.566 21.926-16.547 62.133-43.988 89.602-26.656 19.602 12.488 11.562 36.398-3.6953 48.609-11.703 9.3789-25.871 16.07-39.535 22.035-28.59 12.516-58.969 20.355-89.125 28.168h-0.003906c-0.83203 0.20703-1.5234 0.78516-1.875 1.5703-1.6211-3.1406-3.6211-6.0664-5.9648-8.7109-1.332-1.5352-2.7539-2.9961-4.2539-4.3672zm-15.902-100.8c8.0352-23.773 26.656-70.309 59.836-61.266 36.961 10.078 6.9141 63.926-3.9219 82.711-14.254 24.668-31.809 47.207-49.254 69.664l0.003906 0.003907c-0.76953 0.77734-0.76953 2.0273 0 2.8008-4.9023-3.1211-10.426-5.1367-16.184-5.9062-3.1836-29.695 0.0625-59.73 9.5195-88.062z"
         id="path72" />
    </g>
  </g>
</svg>
