<svg xmlns="http://www.w3.org/2000/svg" viewBox="0 0 67.5 65.05"><defs><style>.cls-1{fill:#d0b980;}</style></defs><g id="Vrstva_2" data-name="Vrstva 2"><g id="Vrstva_1-2" data-name="Vrstva 1"><path class="cls-1" d="M42.6,38c1.7,0,5.3,1,9.4,3.9a21.75,21.75,0,0,1,5.9,5.8c1,1.7,1.2,2.7,1,3.1-.13.19-.56.31-1.21.31-1.79,0-5.29-.91-9.39-3.91-5.7-4.1-7.4-8.1-6.9-8.9.2-.2.5-.3,1.2-.3m0-3a4.4,4.4,0,0,0-3.32,1.18l-.24.24-.18.29c-2.1,3.35,2.28,9,7.69,12.93,5.67,4.15,10,4.47,11.14,4.47a4.19,4.19,0,0,0,3.65-1.57l.14-.19.1-.21c1-2-.15-4.35-1.09-6a25.18,25.18,0,0,0-6.76-6.73C49.09,36.18,44.94,35,42.6,35Z"/><path class="cls-1" d="M54.13,29.81c6.82,0,10.37,2.32,10.37,3.4,0,.3-.7,1.2-2.6,1.9a22.18,22.18,0,0,1-8.2,1.2c-7,0-10.8-2.4-10.8-3.4s3.8-3.1,10.5-3.1h.73m0-3H53.4c-6.54,0-13.5,2.14-13.5,6.1,0,4.16,7.11,6.4,13.8,6.4A24.44,24.44,0,0,0,63,37.9c2.81-1.06,4.49-2.81,4.49-4.69,0-3.65-5.75-6.4-13.37-6.4Z"/><path class="cls-1" d="M57.8,15a2.52,2.52,0,0,1,1.4.3c.2.3.2,1.4-1,3.1a22.06,22.06,0,0,1-6,5.7c-4.22,2.83-7.64,3.71-9.39,3.71-.65,0-1.07-.12-1.21-.31-.7-.7,1.2-4.8,6.8-8.7a25.4,25.4,0,0,1,7.5-3.6,6.82,6.82,0,0,1,1.9-.2m0-3a9.81,9.81,0,0,0-2.64.29,27.73,27.73,0,0,0-8.4,4l0,0,0,0c-4.65,3.23-7.95,7.38-8.21,10.32a3.67,3.67,0,0,0,.8,2.75,4.3,4.3,0,0,0,3.53,1.4c3,0,7.13-1.57,11.06-4.22a25.73,25.73,0,0,0,6.83-6.52c1.69-2.43,2.06-4.83,1-6.43L61.25,13l-.71-.35A5.55,5.55,0,0,0,57.8,12Z"/><path class="cls-1" d="M44.7,4c.3.2.9,1,.9,3.1a25.92,25.92,0,0,1-1.5,8.1,22.33,22.33,0,0,1-4.1,7.2c-1.18,1.26-2.08,1.75-2.51,1.75a.36.36,0,0,1-.19-.05c-.3-.2-.9-1-.9-3.1a16.53,16.53,0,0,1,1.4-8.1,22.33,22.33,0,0,1,4.1-7.2C43.1,4.31,44,4,44.5,4h.2m.91-3H44.5c-1.67,0-3.32.92-4.88,2.75A25.23,25.23,0,0,0,35,11.83a19.6,19.6,0,0,0-1.6,9.38c.05,3.43,1.42,4.85,2.24,5.4a3.32,3.32,0,0,0,1.85.55c1.47,0,3-.89,4.7-2.7l0,0,0,0a25.32,25.32,0,0,0,4.69-8.2A28.91,28.91,0,0,0,48.6,7.11c0-3.57-1.4-5-2.24-5.6L45.61,1Z"/><path class="cls-1" d="M26.09,3c1,0,4.06,2.93,5.71,9.61a24.76,24.76,0,0,1,.9,8.2c-.2,2.1-.9,2.9-1.2,2.9h-.09c-1,0-4.06-2.93-5.71-9.61a18.5,18.5,0,0,1-.9-8.2C25,3.81,25.7,3,26,3h.09m0-3a3.59,3.59,0,0,0-.47,0c-1.65.2-3.41,1.72-3.8,5.49a21.4,21.4,0,0,0,1,9.39c1.71,6.85,5.31,11.81,8.6,11.81a3.59,3.59,0,0,0,.47,0c1.67-.2,3.44-1.75,3.81-5.6V21a28.08,28.08,0,0,0-1-9.14C33,5,29.38,0,26.09,0Z"/><path class="cls-1" d="M11.21,12.63a6.85,6.85,0,0,1,2.29.48,19,19,0,0,1,7,4.3,22.45,22.45,0,0,1,5.3,6.3c1,1.7,1,2.9.7,3.1-.1.15-.45.27-1,.27a6.75,6.75,0,0,1-2.29-.47,19,19,0,0,1-7-4.3c-5.2-4.6-6.5-8.7-6-9.4.1-.15.45-.28,1-.28m0-3a3.91,3.91,0,0,0-3.48,1.58c-2.14,3.09,1.6,9,6.44,13.31a22,22,0,0,0,8.06,4.93,9.66,9.66,0,0,0,3.26.63A4.12,4.12,0,0,0,28.6,29c1.47-1.38,1.43-3.93-.16-6.68a26.18,26.18,0,0,0-5.92-7.09,22,22,0,0,0-8-4.92,9.69,9.69,0,0,0-3.26-.64Z"/><path class="cls-1" d="M10.8,27.51a23.7,23.7,0,0,1,3.1.2,22.85,22.85,0,0,1,8.1,2.1c1.7.9,2.4,1.9,2.4,2.2s-.9,1-2.7,1.7a17,17,0,0,1-5.1.7,23.7,23.7,0,0,1-3.1-.2,24.5,24.5,0,0,1-8.1-2.1c-1.7-.9-2.4-1.9-2.4-2.2s.9-1,2.7-1.7a17,17,0,0,1,5.1-.7m0-3h0a20.3,20.3,0,0,0-6,.84l-.09,0-.09,0C1.42,26.65,0,28,0,29.91c0,2.54,3.06,4.35,4,4.85,2,1.12,4.86,1.88,9.12,2.42a25.74,25.74,0,0,0,3.48.23,20.3,20.3,0,0,0,6-.84l.09,0,.09,0C26,35.27,27.4,33.88,27.4,32c0-2.54-3.06-4.36-4-4.85a26,26,0,0,0-9.16-2.43,26.94,26.94,0,0,0-3.44-.22Z"/><path class="cls-1" d="M23.7,37c1,0,1.5.2,1.7.5s0,1.4-1.2,2.9c-1.2,1.9-3.6,3.7-6.3,5.3-4,2.29-7.4,3-9.32,3-.93,0-1.52-.18-1.68-.44-.5-.9,1.7-4.6,7.7-8.2,3.9-2.2,7.2-3.1,9.1-3.1m0-3c-2.79,0-6.65,1.27-10.57,3.49l0,0,0,0C7.24,41,2.27,46.16,4.28,49.77l0,.06,0,.07c.76,1.23,2.18,1.85,4.22,1.85,1.43,0,5.34-.34,10.8-3.43h0l0,0c3.51-2.08,5.87-4.09,7.21-6.13,1.88-2.4,2.33-4.7,1.26-6.31A4.7,4.7,0,0,0,23.7,34Z"/><path class="cls-1" d="M29.6,41.21c.3.2.7,1.2.7,3.1a20.29,20.29,0,0,1-2.1,8.1,33,33,0,0,1-4.6,6.9,4.88,4.88,0,0,1-2.66,1.56.38.38,0,0,1-.24-.06c-.3-.2-.7-1.2-.7-3.1a31,31,0,0,1,2.2-8.1,33,33,0,0,1,4.6-6.9,4.35,4.35,0,0,1,2.6-1.5h.2m.91-3H29.4a7.14,7.14,0,0,0-4.72,2.38l0,0,0,0a35.64,35.64,0,0,0-5.07,7.57l-.07.13-.06.14A34.3,34.3,0,0,0,17,57.44v.27c0,2.81.68,4.7,2,5.6a3.45,3.45,0,0,0,1.9.56c1.8,0,3.55-1.29,4.71-2.37l.07-.07.07-.07a35.64,35.64,0,0,0,5.07-7.57,23.27,23.27,0,0,0,2.44-9.36v-.12c0-2.81-.68-4.7-2-5.6l-.75-.5Z"/><path class="cls-1" d="M33.7,27.31a5.5,5.5,0,1,1-5.5,5.5,5.42,5.42,0,0,1,5.5-5.5m0-3a8.5,8.5,0,1,0,8.5,8.5,8.41,8.41,0,0,0-8.5-8.5Z"/><path class="cls-1" d="M37.1,41.81a5.16,5.16,0,0,1,2.6,1.9,24.49,24.49,0,0,1,3.9,7.2c2.3,6.3,1.2,10.7.4,11.1a.29.29,0,0,1-.17,0,4.87,4.87,0,0,1-2.53-1.74,24.49,24.49,0,0,1-3.9-7.2,23.17,23.17,0,0,1-1.4-8.2c0-2.1.7-2.9,1-3.1h.1m0-3h-1l-.75.5c-.7.47-2.32,1.94-2.34,5.54a26.5,26.5,0,0,0,1.56,9.24v0l0,0a27.67,27.67,0,0,0,4.46,8.14l0,0,0,0c1.15,1.23,2.89,2.7,4.73,2.7a3.36,3.36,0,0,0,1.76-.49c2.8-1.75,3.19-8.21.83-14.68A28,28,0,0,0,42,41.72c-.56-.65-2.67-2.91-4.85-2.91Z"/><ellipse class="cls-1" cx="33.39" cy="41.21" rx="3.15" ry="2.64"/></g></g></svg>