<?xml version="1.0" encoding="utf-8"?>
<!-- Generator: Adobe Illustrator 26.1.0, SVG Export Plug-In . SVG Version: 6.00 Build 0)  -->
<svg version="1.1" id="Vrstva_1" xmlns="http://www.w3.org/2000/svg" xmlns:xlink="http://www.w3.org/1999/xlink" x="0px" y="0px"
	 viewBox="0 0 700 700" style="enable-background:new 0 0 700 700;" xml:space="preserve">
<style type="text/css">
	.st0{fill:#D0B981;}
	.st1{fill:#B27C41;}
	.st2{fill:#374425;}
</style>
<g>
	<path class="st0" d="M92,299.9c3.6,2.4,7.5,3.9,10.6,3.9c1.7,0,3.1-0.5,4.1-1.7c0.7-1,1.5-3.3-0.9-6.9c-1.4-2.1-3.4-4.3-6-6.2
		c3.3,0,6.2-0.5,8.6-1.5c4.1-1.5,4.8-3.8,4.8-5.1c0-4.1-6.3-6.5-13.2-6.9c2.6-1.9,4.8-3.9,6.2-6c2.4-3.8,1.7-5.8,1-6.9
		c-0.7-1-2.4-2.6-6.9-1.5c-2.4,0.5-5.1,1.9-7.9,3.6c1-3.1,1.5-6,1.5-8.6c-0.2-4.5-2.1-5.8-3.1-6.2c-1.2-0.3-3.4-0.7-6.5,2.7
		c-1.7,1.9-3.3,4.5-4.5,7.4c-1.9-6.5-5.7-12.2-9.8-11.1c-1.2,0.3-3.3,1.5-3.8,5.8c-0.3,2.4,0,5.5,0.7,8.6c-2.6-2.1-5.1-3.6-7.5-4.3
		c-4.3-1.4-6.2-0.2-6.9,0.9c-2.7,3.3,0.9,9.1,5.8,13.5c-3.1-0.2-6.2,0-8.6,0.7c-4.3,1.2-5.1,3.4-5.1,4.6c-0.2,1.2,0.3,3.4,4.3,5.5
		c2.2,1.2,5.1,1.9,8.2,2.2c-5.7,3.6-10.3,8.7-8.1,12.3c0.9,1.5,2.6,2.2,4.8,2.2c2.9,0,6.5-1.2,9.9-3.1c-1.2,2.9-2.1,5.8-2.2,8.4
		c-0.3,4.5,1.5,6,2.6,6.5c0.3,0.2,1,0.3,1.7,0.3c1.2,0,2.9-0.5,5-2.4c1.9-1.7,3.6-4.3,5.1-7.2c-0.7,18.5-1.2,52,1.4,75.3
		c0.2,0.9,0.9,1.5,1.7,1.5h0.2c0.9-0.2,1.5-1,1.5-1.9c-2.6-23.2-2.1-56.6-1.4-74.9c1.2,3.1,2.7,5.8,4.3,7.7c2.1,2.4,3.9,2.9,5.1,2.9
		c0.5,0,0.9-0.2,1.2-0.2C94,313.1,94,306.2,92,299.9L92,299.9z M102.8,297.1c1,1.7,1.2,2.7,1,3.1c-0.5,0.7-5,0.5-10.6-3.6
		c-5.7-4.1-7.4-8.1-6.9-8.9c0.2-0.2,0.5-0.3,1.2-0.3c1.7,0,5.3,1,9.4,3.9C99.3,293,101.6,295.1,102.8,297.1L102.8,297.1z
		 M109.4,282.6c0,0.3-0.7,1.2-2.6,1.9c-2.1,0.9-5.1,1.2-8.2,1.2c-7,0-10.8-2.4-10.8-3.4c0-0.9,3.8-3.1,10.5-3.1h0.3
		C105.7,279.1,109.4,281.5,109.4,282.6L109.4,282.6z M93.3,268.2c2.6-1.7,5.3-3.1,7.5-3.6c0.7-0.2,1.4-0.2,1.9-0.2
		c0.9,0,1.2,0.2,1.4,0.3c0.2,0.3,0.2,1.4-1,3.1c-1.2,1.9-3.4,3.9-6,5.7c-5.8,3.9-10.1,4.1-10.6,3.4
		C85.8,276.2,87.7,272.1,93.3,268.2L93.3,268.2z M82.7,262.3c1-2.9,2.6-5.5,4.1-7.2c1.2-1.4,2.1-1.7,2.6-1.7h0.2
		c0.3,0.2,0.9,1,0.9,3.1c0,2.2-0.5,5.3-1.5,8.1c-1,2.9-2.6,5.5-4.1,7.2c-1.4,1.5-2.4,1.9-2.7,1.7s-0.9-1-0.9-3.1
		C81,268.2,81.5,265.1,82.7,262.3z M69.7,255.3c0.2-2.1,0.9-2.9,1.2-2.9c0.9-0.2,4.1,2.7,5.8,9.6c0.9,2.9,1,6,0.9,8.2
		c-0.2,2.1-0.9,2.9-1.2,2.9c-0.9,0.2-4.1-2.7-5.8-9.6C69.7,260.6,69.3,257.7,69.7,255.3z M55.1,262.3c0.2-0.3,1.4-0.5,3.3,0.2
		c2.2,0.7,4.8,2.2,7,4.3c2.4,2.1,4.3,4.3,5.3,6.3c1,1.7,1,2.9,0.7,3.1c-0.2,0.3-1.4,0.5-3.3-0.2c-2.2-0.7-4.8-2.2-7-4.3
		C55.9,267.1,54.6,263,55.1,262.3L55.1,262.3z M50.3,281.5c-1.7-0.9-2.4-1.9-2.4-2.2s0.9-1,2.7-1.7c2.2-0.7,5.1-0.9,8.2-0.5
		c3.1,0.3,6,1,8.1,2.1c1.7,0.9,2.4,1.9,2.4,2.2c0,0.3-0.9,1-2.7,1.7c-2.2,0.7-5.1,0.9-8.2,0.5C55.3,283.2,52.3,282.6,50.3,281.5z
		 M62.8,295.1c-6,3.4-10.5,3.4-11,2.6c-0.5-0.9,1.7-4.6,7.7-8.2c3.9-2.2,7.2-3.1,9.1-3.1c1,0,1.5,0.2,1.7,0.5c0.2,0.3,0,1.4-1.2,2.9
		C67.9,291.7,65.5,293.5,62.8,295.1L62.8,295.1z M73.1,301.8c-1.4,2.7-3.1,5.3-4.6,6.9c-1.5,1.4-2.6,1.7-2.9,1.5
		c-0.3-0.2-0.7-1.2-0.7-3.1c0.2-2.2,1-5.1,2.2-8.1c1.4-2.7,3.1-5.3,4.6-6.9c1.2-1.2,2.2-1.5,2.6-1.5h0.2c0.3,0.2,0.7,1.2,0.7,3.1
		C75.1,296.1,74.5,299,73.1,301.8L73.1,301.8z M78.6,287.7c-3.1,0-5.5-2.4-5.5-5.5c0-3.1,2.4-5.5,5.5-5.5c3.1,0,5.5,2.4,5.5,5.5
		S81.7,287.7,78.6,287.7z M88.9,311.4c-0.3,0.2-1.4-0.3-2.7-1.7c-1.5-1.7-2.9-4.5-3.9-7.2c-1-2.9-1.5-5.8-1.4-8.2
		c0-2.1,0.7-2.9,1-3.1H82c0.3,0,1.4,0.5,2.6,1.9c1.5,1.7,2.9,4.5,3.9,7.2C90.8,306.6,89.7,311,88.9,311.4L88.9,311.4z"/>
	<path class="st0" d="M172,275.7c2.6-1.9,4.8-3.9,6.2-6c2.4-3.8,1.7-5.8,1-6.9c-0.7-1-2.4-2.6-6.9-1.5c-2.4,0.5-5.1,1.9-7.9,3.6
		c1-3.1,1.5-6,1.5-8.6c-0.2-4.5-2.1-5.8-3.1-6.2c-1-0.3-3.4-0.7-6.5,2.7c-1.7,1.9-3.3,4.5-4.5,7.4c-1.9-6.5-5.7-12.2-9.8-11.1
		c-1.2,0.3-3.3,1.5-3.8,5.8c-0.3,2.4,0,5.5,0.7,8.6c-2.6-2.1-5.1-3.6-7.5-4.3c-4.3-1.4-6.2-0.2-6.9,0.9c-2.7,3.3,0.9,9.1,5.8,13.5
		c-3.1-0.2-6.2,0-8.6,0.7c-4.3,1.2-5.1,3.4-5.1,4.6c-0.2,1.2,0.3,3.4,4.3,5.5c2.2,1.2,5.1,1.9,8.2,2.2c-5.7,3.6-10.3,8.7-8.1,12.3
		c0.9,1.5,2.6,2.2,4.8,2.2c2.9,0,6.5-1.2,9.9-3.1c-1.2,2.9-2.1,5.8-2.2,8.4c-0.3,4.5,1.5,6,2.6,6.5c0.3,0.2,1,0.3,1.7,0.3
		c1.2,0,2.9-0.5,5-2.4c1.9-1.7,3.6-4.3,5.1-7.2c-0.7,18.4-1.4,52.3,1.4,76c0.2,0.9,0.9,1.5,1.7,1.5h0.2c0.9-0.2,1.5-1,1.5-1.9
		c-2.7-23.5-2.1-57.1-1.4-75.3c1.2,3.1,2.7,5.8,4.3,7.7c2.1,2.4,3.9,2.9,5.1,2.9c0.5,0,0.9-0.2,1.2-0.2c3.9-1.4,3.9-8.2,1.9-14.6
		c3.6,2.4,7.5,3.9,10.6,3.9c1.7,0,3.1-0.5,4.1-1.7c0.7-1,1.5-3.3-0.9-6.9c-1.4-2.1-3.4-4.3-6-6.2c3.3,0,6.2-0.5,8.6-1.5
		c4.1-1.5,4.8-3.8,4.8-5.1C185.3,278.3,178.7,276,172,275.7L172,275.7z M165.5,268.2c2.6-1.7,5.3-3.1,7.5-3.6
		c0.7-0.2,1.4-0.2,1.9-0.2c0.9,0,1.2,0.2,1.4,0.3c0.2,0.3,0.2,1.4-1,3.1c-1.2,1.9-3.4,3.9-6,5.7c-5.8,3.9-10.1,4.1-10.6,3.4
		C158,276.2,159.9,272.1,165.5,268.2L165.5,268.2z M154.9,262.3c1-2.9,2.6-5.5,4.1-7.2c1.2-1.4,2.1-1.7,2.6-1.7h0.2
		c0.3,0.2,0.9,1,0.9,3.1c0,2.2-0.5,5.3-1.5,8.1c-1.2,2.9-2.7,5.5-4.3,7.2c-1.4,1.5-2.4,1.9-2.7,1.7c-0.3-0.2-0.9-1-0.9-3.1
		C153.2,268.2,153.7,265.1,154.9,262.3L154.9,262.3z M141.9,255.3c0.2-2.1,0.9-2.9,1.2-2.9c0.9-0.2,4.1,2.7,5.8,9.6
		c0.9,2.9,1,6,0.9,8.2c-0.2,2.1-0.9,2.9-1.2,2.9c-0.9,0.2-4.1-2.7-5.8-9.6C141.9,260.6,141.5,257.7,141.9,255.3z M127.3,262.3
		c0.2-0.3,1.4-0.5,3.3,0.2c2.2,0.7,4.8,2.2,7,4.3c2.4,2.1,4.3,4.3,5.3,6.3c1,1.7,1,2.9,0.7,3.1c-0.3,0.2-1.4,0.5-3.3-0.2
		c-2.2-0.7-4.8-2.2-7-4.3C128.1,267.1,126.8,263,127.3,262.3L127.3,262.3z M122.5,281.5c-1.7-0.9-2.4-1.9-2.4-2.2s0.9-1,2.7-1.7
		c2.2-0.7,5.1-0.9,8.2-0.5c3.1,0.3,6,1,8.1,2.1c1.7,0.9,2.4,1.9,2.4,2.2s-0.9,1-2.7,1.7c-2.2,0.7-5.1,0.9-8.2,0.5
		C127.5,283.2,124.5,282.6,122.5,281.5z M135,295.1c-6,3.4-10.5,3.4-11,2.6c-0.5-0.9,1.7-4.6,7.7-8.2c3.9-2.2,7.2-3.1,9.1-3.1
		c1,0,1.5,0.2,1.7,0.5c0.2,0.3,0,1.4-1.2,2.9C140.1,291.7,137.7,293.5,135,295.1L135,295.1z M145.3,301.8c-1.4,2.7-3.1,5.3-4.6,6.9
		c-1.5,1.4-2.6,1.7-2.9,1.5c-0.3-0.2-0.7-1.2-0.7-3.1c0.2-2.2,1-5.1,2.2-8.1c1.4-2.7,3.1-5.3,4.6-6.9c1.2-1.2,2.2-1.5,2.6-1.5h0.2
		c0.3,0.2,0.7,1.2,0.7,3.1C147.4,296.1,146.7,299,145.3,301.8L145.3,301.8z M150.8,287.7c-3.1,0-5.5-2.4-5.5-5.5
		c0-3.1,2.4-5.5,5.5-5.5c3.1,0,5.5,2.4,5.5,5.5C156.3,285.3,153.9,287.7,150.8,287.7z M161.1,311.4c-0.3,0.2-1.4-0.3-2.7-1.7
		c-1.5-1.7-2.9-4.5-3.9-7.2c-1-2.9-1.5-5.8-1.4-8.2c0-2.1,0.7-2.9,1-3.1h0.2c0.3,0,1.4,0.5,2.6,1.9c1.5,1.7,2.9,4.5,3.9,7.2
		C163,306.6,161.9,311,161.1,311.4L161.1,311.4z M175,297.1c1,1.7,1.2,2.7,1,3.1c-0.5,0.7-5,0.5-10.6-3.6c-5.7-4.1-7.4-8.1-6.9-8.9
		c0.2-0.2,0.5-0.3,1.2-0.3c1.7,0,5.3,1,9.4,3.9C171.5,293,173.8,295.1,175,297.1L175,297.1z M179.1,284.4c-2.1,0.9-5.1,1.2-8.2,1.2
		c-7,0-10.8-2.4-10.8-3.4c0-0.9,3.8-3.1,10.5-3.1h0.3c7,0,10.8,2.4,10.8,3.4C181.7,282.9,181,283.6,179.1,284.4L179.1,284.4z"/>
	<path class="st1" d="M132.6,327.8c1.5-1.4,2.9-2.7,3.9-4.1c2.1-3.1,1.4-4.8,0.7-5.7c-0.5-0.9-2.1-2.1-5.7-1.4
		c-1.5,0.3-3.4,1.2-5.1,2.2c0.5-2.1,0.9-3.9,0.9-5.5c0-3.6-1.7-4.8-2.6-5.1c-3.1-1.2-6.3,2.6-8.4,6.9c-1.5-4.6-4.5-8.6-7.5-7.7
		c-3.3,0.9-3.8,5.7-2.9,10.5c-3.9-2.9-8.6-4.5-10.6-1.9c-0.7,0.9-1.5,2.6,0.2,5.8c0.9,1.5,2.1,2.9,3.4,4.5c-2.1,0-3.9,0.2-5.7,0.7
		c-3.4,1-4.1,2.9-4.3,3.9c-0.2,1,0.2,2.9,3.4,4.6c1.5,0.7,3.3,1.4,5.3,1.7c-3.9,2.7-7,6.5-5.5,9.4c0.5,0.7,1.5,1.9,4.1,1.9
		c0.5,0,0.9,0,1.4-0.2c1.7-0.2,3.4-0.9,5.3-1.7c-0.7,1.9-1.2,3.8-1.2,5.5c-0.2,3.6,1.4,4.8,2.2,5.3c0.5,0.2,1,0.3,1.5,0.3
		c2.9,0,5.8-3.4,7.9-7.4c-0.5,6.5-1.4,20.9,0.2,30.9c0.2,0.9,0.9,1.4,1.7,1.4h0.3c0.9-0.2,1.5-1,1.4-1.9c-1.4-8.6-0.9-20.8-0.3-28
		c0.7,1.2,1.4,2.4,2.2,3.3c1.7,1.9,3.1,2.4,4.3,2.4c0.5,0,0.9,0,1-0.2c1-0.3,2.6-1.4,2.7-5.1c0-1.7-0.2-3.6-0.7-5.7
		c2.4,1.5,5.1,2.6,7.4,2.6c1.4,0,2.6-0.5,3.4-1.5c0.5-0.9,1.4-2.7-0.7-5.7c-0.9-1.4-2.2-2.7-3.8-4.1c4.8-0.3,9.4-2.1,9.4-5.3
		C141.9,329.9,137.4,328.2,132.6,327.8L132.6,327.8z M126.8,322.7c4.1-2.7,7.2-3.1,7.5-2.7c0.2,0.5-1.2,3.4-5.3,6.2
		c-4.1,2.7-7.2,3.1-7.5,2.7C121.3,328.2,122.7,325.4,126.8,322.7z M118.7,317.9c1.7-4.6,4.1-6.7,4.6-6.7c0.5,0.3,1,3.4-0.7,8.1
		c-1.7,4.6-4.1,6.7-4.6,6.7C117.5,325.6,117,322.5,118.7,317.9z M109.4,310.7c0.7,0,2.7,2.2,3.9,7c1.2,4.8,0.5,7.7,0,8.1
		c-0.7,0-2.7-2.2-3.9-7C108.2,313.9,108.9,311,109.4,310.7z M97.6,318.1H98c1,0,3.8,0.9,6.9,3.6c1.7,1.4,2.7,2.7,3.6,3.9
		c0.2,0.2,0.2,0.3,0.3,0.5c0.7,1.2,0.9,2.1,0.9,2.2c-0.5,0.3-3.6-0.2-7.4-3.4C98.5,321.5,97.4,318.6,97.6,318.1L97.6,318.1z
		 M92.3,330.9c0.2-0.5,2.2-1.5,6-1.5c0.7,0,1.4,0,2.1,0.2c5,0.5,7.4,2.2,7.5,2.7c-0.2,0.3-0.9,0.7-2.2,1c-1.4,0.3-3.3,0.5-5.7,0.3
		C95,333.3,92.5,331.4,92.3,330.9L92.3,330.9z M103.1,342.4c-4.3,2.4-7.4,2.4-7.7,2.1c-0.2-0.5,1.4-3.3,5.7-5.7
		c1.9-1,3.6-1.7,4.8-2.1h0.2c0.7-0.2,1.4-0.2,1.9-0.2s0.9,0,0.9,0.2C108.9,337.3,107.4,340,103.1,342.4L103.1,342.4z M110.6,347.7
		c-2.1,4.5-4.6,6.3-5.1,6.2c-0.5-0.3-0.7-3.4,1.4-8.1c2.1-4.5,4.6-6.2,5.1-6.2C112.5,340.2,112.9,343.3,110.6,347.7z M115.3,336.8
		c-2.1,0-3.8-1.7-3.8-3.8c0-2.1,1.7-3.8,3.8-3.8c2.1,0,3.8,1.7,3.8,3.8C119.1,335,117.3,336.8,115.3,336.8z M123,354.9
		c-0.7,0-2.9-2.1-4.6-6.7c-1.7-4.6-1-7.7-0.7-8.1c0.3,0,1,0.5,1.9,1.5c0.9,1,1.9,2.7,2.7,5.1C124,351.5,123.5,354.6,123,354.9
		L123,354.9z M134.1,346.5c-0.5,0.3-3.6,0-7.5-2.9c-1.9-1.4-3.1-2.6-3.9-3.6c-0.2-0.2-0.2-0.3-0.3-0.5c-0.7-1-1-1.9-1-2.1
		c0.2,0,0.3-0.2,0.7-0.2c1.2,0,3.8,0.7,7,2.9C132.9,343.1,134.3,346,134.1,346.5L134.1,346.5z M130.9,335.2h-0.2
		c-2.2,0-4.1-0.3-5.3-0.9c-0.2,0-0.3-0.2-0.3-0.2c-1.2-0.5-1.9-0.9-2.1-1.2c0.2-0.5,2.7-2.1,7.5-2.1h0.2c5,0,7.5,1.5,7.7,2.1
		C138.3,333.8,135.7,335.2,130.9,335.2L130.9,335.2z"/>
	<g>
		<path class="st2" d="M205.6,334.6C205.7,334.5,205.7,334.5,205.6,334.6c-1.6,2-3.2,4.1-4.8,6.2c1.6,2.1,3.1,4.3,4.7,6.4
			c1.5,2,3,4,4.5,6c0.9,1.2,1.7,2.4,2.6,3.6c0.8,1.2,1.7,2.3,2.6,3.5c1.8,2.4,3.6,4.8,5.4,7.2c1.1,1.4,2.2,2.7,3.3,4
			c1.1,1.3,2.3,2.6,3.4,4c0.2,0.3,0.4,0.6,0.4,1c0,0.4-0.1,0.7-0.4,1c-0.3,0.3-0.6,0.4-1,0.4c-0.3,0-0.8-0.1-1-0.4
			c-0.8-0.9-1.6-1.8-2.4-2.8c-0.7-0.9-1.5-1.7-2.2-2.6c-1-1.3-2.1-2.6-3.1-3.9c-0.9-1.2-1.8-2.4-2.7-3.7c-1.8-2.4-3.7-4.8-5.5-7.3
			c-0.9-1.3-1.8-2.5-2.7-3.8c-0.8-1.2-1.7-2.3-2.6-3.4c-1.4-1.8-2.8-3.7-4.1-5.6c0,1.6,0,3.3,0,4.9c0,1.5,0.1,3,0.1,4.4
			c0,1.5,0.1,3,0.2,4.5c0.1,3.1,0.3,6.1,0.5,9.1c0.2,2.9,0.4,5.8,0.6,8.7c0,0.2,0,0.4-0.1,0.6c0.1,0.7-0.3,1.4-1,1.6
			c-1.1,0.3-2.2,0.4-3.3,0.7c-1.2,0.2-2.5,0.4-3.8,0.6c-0.3,0-0.8-0.2-1-0.4c-0.3-0.3-0.4-0.6-0.4-1c0-0.1,0-0.2,0-0.3
			c-0.1-0.6-0.1-1.2-0.2-1.8c-0.1-0.6-0.1-1.3-0.1-1.9c0-0.7-0.1-1.5-0.1-2.2c0-0.7,0-1.4-0.1-2.1c0-1.4-0.1-2.7-0.1-4.1
			c0-1.4-0.1-2.7-0.1-4.1c0-6.1,0-12.2,0-18.3c0-3,0-6-0.2-9c-0.1-1.5-0.2-3-0.3-4.5c0-1.4,0-2.9,0-4.3c0-1.5,0.1-3,0.2-4.4
			c0.1-1.4,0.2-2.9,0.2-4.3c0.1-3.1,0.1-6.3,0.2-9.4c0-0.6,0.4-1.1,0.9-1.3c0.1,0,0.2-0.1,0.2-0.1c1.5-0.4,2.9-0.7,4.4-0.9
			c0.1,0,0.2-0.1,0.4-0.1s0.2,0,0.4,0.1c0.1,0,0.2,0.1,0.3,0.1c0.2,0.1,0.3,0.2,0.4,0.4c0.1,0,0.3-0.1,0.4-0.1c0.4,0,0.7,0.1,1,0.4
			c0.2,0.2,0.4,0.6,0.4,1c-0.2,2.5-0.3,5.1-0.4,7.6c0,2.5,0,5,0,7.5c0,1.6,0,3.1,0,4.7c0,1.4-0.1,2.9-0.1,4.3c0,2.1,0,4.2,0,6.3
			c0-0.1,0.1-0.1,0.1-0.2c0.9-1.2,1.9-2.4,2.8-3.6c-0.1,0.1-0.1,0.2-0.2,0.3c1.8-2.4,3.7-4.7,5.5-7c1.8-2.3,3.6-4.6,5.5-6.8
			c1-1.2,2.1-2.4,3.1-3.5c1-1.1,1.9-2.2,2.9-3.3c2.3-2.6,4.6-5.2,6.9-7.9c0.2-0.3,0.6-0.4,1-0.4c0.4,0,0.7,0.1,1,0.4
			c0.3,0.3,0.4,0.6,0.4,1c0,0.4-0.2,0.7-0.4,1c-3.8,4.5-7.7,8.8-11.6,13.3c-1,1.1-1.9,2.2-2.8,3.3c-1,1.3-2,2.5-3,3.8
			C209.3,330,207.4,332.2,205.6,334.6z M198.7,375.7c-0.3-4.5-0.7-9-1-13.5c-0.2-3-0.3-6-0.4-9c-0.1-1.5-0.1-3-0.1-4.6
			c0-1.6,0-3.2,0-4.8c0-0.6,0-1.1,0-1.7c0-0.1-0.1-0.2-0.1-0.3c-0.1-0.3-0.1-0.7,0.1-1c0-2,0-3.9,0-5.9c0-1.5,0-3,0-4.6
			c0-1.6,0.1-3.1,0.1-4.7c0-1.6,0-3.2,0-4.8c0-1.5,0-3.1,0-4.6c0-1.4,0-2.9,0.1-4.3c0.1-1.5,0.1-2.9,0.2-4.4
			c-1.1,0.2-2.2,0.4-3.3,0.7c-0.1,2.5-0.1,5-0.2,7.6c0,1.3-0.1,2.6-0.2,3.8c-0.1,1.4-0.2,2.7-0.3,4.1c-0.1,1.4-0.1,2.9-0.1,4.3
			c0,1.4,0,2.8,0.1,4.2c0.1,1.5,0.2,3.1,0.3,4.6c0.1,1.5,0.1,3.1,0.1,4.6c0.1,6,0,12,0,18c0,1.5,0,3.1,0,4.6c0,1.5,0.1,2.9,0.1,4.4
			c0,0.8,0,1.5,0,2.3c0,0.8,0.1,1.6,0.1,2.3c0.1,1.1,0.1,2.2,0.2,3.3c0.7-0.1,1.4-0.2,2.1-0.4C197.4,376,198,375.9,198.7,375.7z"/>
		<path class="st2" d="M257.6,304c0,0,0.1,0,0.1,0c0.7,0,1.5,0.1,2.4,0.3c0.3,0.1,0.6,0.1,0.9,0.2c0.4,0.1,0.7,0.2,1.1,0.2
			c0.8,0.1,1.4,0.3,2.1,0.5l0.1,0c0.9,0.3,1.9,0.5,2.8,1.1c0.8,0.5,1.7,1,2.4,1.8c0.3,0.3,0.5,0.6,0.8,0.9c0.2,0.2,0.4,0.5,0.6,0.7
			c0.5,0.6,1,1.2,1.5,1.9l0.1,0.2c0.4,0.6,0.8,1.2,1.2,1.9c0.5,0.9,0.9,2,1.3,3.1c0.2,0.6,0.3,1.1,0.5,1.7l0.1,0.5
			c0.2,0.8,0.4,1.5,0.5,2.2c0.2,0.7,0.3,1.4,0.4,2.1l0,0.1c0.1,0.8,0.2,1.6,0.3,2.4c0.2,1.5,0.4,3.1,0.5,4.7
			c0.2,2.8,0.3,5.8,0.3,8.8c-0.1,3.7-0.2,6.5-0.5,9.2c-0.3,2.8-0.8,5.8-1.6,9.2c-0.2,0.7-0.4,1.5-0.6,2.2c-0.2,0.8-0.5,1.6-0.7,2.2
			c-0.3,0.9-0.6,1.8-1,2.7c-0.2,0.5-0.4,1-0.6,1.6c-0.2,0.6-0.4,1.1-0.7,1.7l-0.1,0.3l-0.2,0.4c-0.1,0.2-0.2,0.5-0.3,0.7l-0.1,0.3
			c-0.2,0.5-0.4,1.1-0.7,1.6c-0.3,0.6-0.6,1.1-0.9,1.5c-0.2,0.2-0.4,0.5-0.6,0.7c-0.2,0.3-0.5,0.6-0.8,0.9c-0.8,0.9-1.7,1.9-2.8,2.7
			c-0.5,0.3-1.1,0.6-1.6,0.9l0,0c-0.9,0.5-1.8,0.8-2.7,0.9c-0.5,0.1-1.2,0.1-1.8,0.1c-0.6,0-1.2,0-1.7-0.1c-1.3-0.1-2.4-0.5-3.4-0.8
			c-0.8-0.3-1.5-0.6-2.2-1c-0.6-0.3-1.1-0.7-1.6-1.1l-0.1-0.1l-0.3-0.2c-0.5-0.4-1-0.7-1.5-1.1c-0.5-0.4-1-0.9-1.4-1.5l-0.1-0.1
			c-0.5-0.6-1-1.1-1.4-1.7c-0.5-0.7-0.8-1.3-1.1-1.8l0,0c-0.3-0.7-0.6-1.4-0.9-2.2c-0.4-1.4-0.9-2.8-1.2-4.1l-0.1-0.3
			c-0.4-1.4-0.7-2.8-1.1-4.3c-0.3-1.3-0.5-2.7-0.8-4.6c-0.3-1.6-0.4-3.3-0.5-4.8c-0.1-1.3-0.1-2.7-0.2-4.3c-0.1-3.5-0.1-6.5-0.1-9.4
			c0-1.7,0.1-3.1,0.2-4.3c0.1-0.7,0.2-1.7,0.3-2.6c0-0.1,0-0.3,0.1-0.4c0-0.3,0.1-0.5,0.1-0.8c0.1-0.4,0.2-0.8,0.2-1.3
			c0.1-0.6,0.2-1.1,0.4-1.7l0.1-0.5c0.1-0.6,0.3-1.3,0.5-1.9l0.2-0.6l0.2-0.8c0.1-0.2,0.2-0.5,0.2-0.7c0-0.1,0.1-0.2,0.1-0.3
			c0.1-0.3,0.2-0.6,0.4-0.9c0.1-0.1,0.1-0.3,0.2-0.4c0.1-0.3,0.2-0.6,0.4-0.8l0.2-0.4c0.3-0.5,0.5-1.1,0.8-1.7
			c0.1-0.1,0.1-0.2,0.2-0.3c0.1-0.2,0.2-0.5,0.4-0.7l0.7-1.1c1-1.6,2.2-3,3.7-4.2c1-0.8,1.9-1.5,2.8-2.1c0.5-0.3,1-0.6,1.6-1
			c0.1,0,0.1-0.1,0.2-0.1l0.1-0.1c0.4-0.3,0.7-0.6,1.2-0.8l0.1,0c0.4-0.2,0.9-0.4,1.4-0.5C256.8,304,257.2,304,257.6,304z
			 M259.4,375.8c0.5,0,0.9,0,1.2,0c0.5-0.1,1-0.2,1.5-0.4c1-0.4,1.7-0.8,2.3-1.3c1.1-0.9,2.1-2.1,2.9-3.1c0.3-0.4,0.5-0.7,0.6-1
			c0.2-0.4,0.4-0.8,0.6-1.2c0.3-0.6,0.5-1.3,0.8-1.9c0.4-1.1,0.8-2.2,1.2-3.3c0.1-0.3,0.2-0.7,0.4-1l0.2-0.5
			c0.2-0.5,0.4-1.1,0.6-1.6c0.3-0.7,0.5-1.5,0.7-2.2c0.4-1.4,0.7-2.8,1.1-4.3c0.3-1.2,0.5-2.6,0.7-4.1c0.2-1.9,0.4-3.8,0.5-6.3
			c0.2-3.4,0.2-6.2,0.1-8.9c-0.1-1.8-0.2-3.3-0.2-4.7c-0.1-1.4-0.3-2.8-0.5-4.4l0-0.2c-0.2-1.5-0.4-3.1-0.8-4.6
			c-0.4-1.6-0.9-3.3-1.5-5c-0.3-0.7-0.8-1.4-1.2-2.2c-0.2-0.4-0.5-0.8-0.9-1.2c-0.2-0.3-0.4-0.5-0.6-0.8c-0.2-0.2-0.4-0.5-0.6-0.7
			c-0.5-0.6-0.9-1.1-1.5-1.6c-0.6-0.4-1.1-0.7-1.7-1c-0.6-0.2-1.2-0.4-1.7-0.5c-0.5-0.1-1-0.3-1.5-0.4c-0.5-0.1-0.9-0.2-1.4-0.3
			c-0.6-0.1-1.2-0.2-1.8-0.3c-0.4,0-0.7-0.1-1-0.1c-0.1,0-0.3,0-0.4,0c-0.3,0-0.5,0.1-0.8,0.2c0,0-0.1,0-0.1,0.1
			c-0.1,0.2-0.3,0.3-0.4,0.4c-0.3,0.2-0.6,0.3-0.9,0.5c-0.4,0.3-0.7,0.7-0.9,1l-0.2,0.2l-0.2,0.3c-0.5,0.7-1.1,1.5-1.5,2.3
			c-0.4,0.7-0.8,1.5-1.1,2.3c-0.3,0.9-0.7,1.8-0.9,2.8c-0.2,0.8-0.4,1.7-0.6,2.9c-0.1,1.1-0.3,2.2-0.3,3.4c-0.1,1.3-0.1,2.4-0.1,3.4
			c0,2.4-0.1,4.6,0,6.7l0,0.3c0,1.3,0,2.7,0.1,4.1c0.1,1.6,0.2,3.1,0.3,4.6c0,0.4,0.1,0.9,0.1,1.3c0.1,1,0.1,2.1,0.2,3.2
			c0.1,1.4,0.3,2.9,0.5,4.6c0.2,1.2,0.3,2.5,0.5,3.7c0.1,0.8,0.2,1.7,0.3,2.5c0.3,2.1,0.8,4.5,1.4,7.1c0.2,1.1,0.5,2.2,0.8,3.2
			c0.3,1.1,0.6,2.2,1,3.1c0.2,0.4,0.4,0.7,0.5,1.1l0.1,0.1c0.2,0.3,0.3,0.7,0.5,1c0.1,0.1,0.2,0.3,0.3,0.4c0.1,0.2,0.3,0.4,0.4,0.6
			l0.1,0.1c0.1,0.2,0.3,0.4,0.4,0.7l0.1,0.1c0.3,0.2,0.5,0.4,0.6,0.7c0.4,0,0.7,0.1,1.1,0.1C258.9,375.8,259.1,375.8,259.4,375.8z"
			/>
		<path class="st2" d="M298.8,303.9c0.7,0,1.4,0,2,0c1.3,0,2.7,0.1,4.3,0.2c1.6,0.1,3.3,0.4,4.8,0.6c0.7,0.1,1.5,0.3,2.2,0.4
			c0.7,0.2,1.4,0.4,2.1,0.7c0.9,0.3,1.6,0.6,2.3,0.9l0.2,0.1c0.6,0.3,1.2,0.5,1.8,0.9c0.7,0.4,1.3,0.7,1.8,1.1l0.1,0.1
			c0.6,0.4,1.2,0.8,1.8,1.2c0.4,0.3,0.8,0.6,1.2,1c0.3,0.2,0.5,0.5,0.8,0.8c1.2,1.2,2,2.7,2.5,4.2l0.1,0.4c0.2,0.6,0.4,1.1,0.5,1.7
			c0.1,0.4,0.2,0.9,0.3,1.4c0,0.3,0.1,0.6,0.1,0.9l0.1,0.5c0.1,0.7,0.3,1.3,0.3,2c0,0.4,0.1,0.8,0.1,1.1c0,0.4,0.1,0.8,0.1,1.2
			c0.1,1,0.1,1.9,0.1,2.6c-0.1,0.8-0.2,1.5-0.3,2.2c-0.1,0.3-0.1,0.6-0.2,1c-0.3,1-0.7,1.9-1.2,2.7c-0.2,0.3-0.4,0.7-0.6,1
			c-0.5,0.7-1,1.3-1.5,1.9c-0.5,0.6-1.1,1.1-1.7,1.5c-0.2,0.1-0.4,0.3-0.5,0.4c-0.1,0.1-0.2,0.1-0.2,0.2c-0.2,0.1-0.4,0.3-0.6,0.5
			c-0.7,0.5-1.5,0.9-2.3,1.2c-0.6,0.2-1.4,0.5-2.2,0.8c-0.7,0.2-1.4,0.4-2.3,0.6c-0.7,0.2-1.4,0.3-2.1,0.4c-0.7,0.1-1.5,0.2-2.3,0.3
			c-1.4,0.2-2.8,0.3-4.5,0.3c-1.4,0.1-2.9,0.1-4.3,0.1c-1.6,0-3.3,0.1-5,0.2c0.1,1.3,0.1,2.7,0.2,4c0.1,1.2,0.1,2.5,0.2,3.8
			c0.1,1.5,0.1,2.9,0.1,4.1c0,1.3,0.1,2.7,0.2,4l0,0.2c0.1,1.3,0.1,2.8,0.2,4.4c0,0.5,0,1.1,0.1,1.6c0,0.9,0.1,1.9,0.1,2.8
			c0,0.6,0.1,1.3,0.1,1.9c0,0.8,0.1,1.5,0.1,2.3c0,1.2,0.1,2.5,0.2,3.8c0.3,0.6,0,1.4-0.6,1.8c-0.1,0.1-0.2,0.1-0.3,0.1
			c-0.2,0.2-0.5,0.3-0.8,0.3c-0.2,0-0.3,0-0.5,0c-0.2,0-0.4,0-0.5,0l-0.1,0c-0.3,0-0.6,0-0.9,0l-0.1,0c-0.7,0-1.4,0-2,0
			c-0.3,0.2-0.6,0.4-0.9,0.4c-0.4,0-0.7-0.2-1-0.4c-0.3-0.3-0.4-0.6-0.4-1l0-0.6c0-0.5-0.1-0.9-0.1-1.4c0-0.4,0-0.8-0.1-1.1
			c0-0.3,0-0.7-0.1-1c0-0.7-0.1-1.4-0.2-2.1c0-0.6-0.1-1.2-0.1-1.8c-0.1-1.2-0.2-2.7-0.2-4c0-1.2-0.1-2.6-0.2-4.1
			c0-0.8-0.1-1.6-0.1-2.4c-0.1-2.1-0.2-4.3-0.3-6.5c-0.1-2.6-0.1-5.2-0.1-7.7l0-1.5c0-3.2,0-6,0.1-8.8c0-1,0-2,0.1-3l0-1.7
			c0-1,0-1.9,0-2.9c0-0.6,0-1.2,0-1.8l0-1.5c0-2.4,0.1-4.9,0.1-7.4c0-2.1,0-4.2,0-6.4l0-3.2c-0.1-0.2-0.1-0.3-0.1-0.5
			c0-0.4,0.1-0.7,0.4-1c0.3-0.3,0.6-0.4,1-0.4c0.3,0,0.6,0,0.9,0c0.2,0,0.5,0,0.7,0l0.2,0c0.1,0,0.3,0,0.4,0c0.3,0,0.5,0,0.7,0
			c0.3,0,0.6,0.1,0.9,0.1c0.7-0.1,1.4-0.2,2.1-0.2C296.8,303.9,297.7,303.9,298.8,303.9z M296.4,340.1c1.5-0.1,2.7-0.1,3.8-0.1
			c0.5,0,0.9,0,1.4,0c0.6,0,1.3,0,1.9,0l0.6,0c1,0,2-0.1,3-0.1c1.1-0.1,2.2-0.2,3.3-0.3c1.5-0.2,2.8-0.4,4.1-0.7
			c1.4-0.3,2.8-0.8,4.1-1.3c0.8-0.4,1.5-0.7,2-1.1l0.3-0.2l0.2-0.1l0.2-0.2c0.4-0.3,0.8-0.6,1.1-1c0.4-0.4,0.7-0.8,1-1.1
			c0.5-0.7,1.1-1.5,1.5-2.5c0.3-0.9,0.6-1.9,0.8-3.1c0.2-1.5,0-3-0.2-4.5l-0.1-0.6c-0.1-0.5-0.2-1.1-0.3-1.6c-0.1-0.5-0.2-1-0.3-1.5
			c-0.1-0.6-0.2-1.2-0.4-1.8c-0.2-0.6-0.4-1.2-0.6-1.8c-0.3-0.7-0.7-1.3-1.1-1.8c-0.5-0.6-1-1.1-1.8-1.8c-0.9-0.7-1.9-1.3-2.8-1.9
			c-0.6-0.4-1.1-0.6-1.6-0.9c-0.6-0.3-1.2-0.5-1.7-0.8c-0.8-0.3-1.8-0.7-2.8-1c-0.5-0.1-1-0.3-1.6-0.4c-0.6-0.1-1.1-0.2-1.6-0.3
			l-0.2,0l-0.2,0l-0.3,0c-0.6-0.1-1.3-0.2-1.9-0.2c-0.7-0.1-1.3-0.1-2-0.1l-0.4,0c-1.4-0.1-2.9-0.1-4.2-0.2c-0.2,0-0.4,0-0.6,0
			c-1,0-1.8,0-2.7,0.1c0.1,0.7,0.2,1.3,0.2,2c0,0.7,0,1.4,0,2.1l0,0.1c0,0.8,0,1.7-0.1,2.5c0,0.6,0,1.3,0,1.9c0,2.2,0,4.4,0,6.5
			c0,0.8,0,1.5,0,2.3c0,1.5,0,3,0,4.5c0,1.5,0,3,0,4.5c0,0.8,0,1.5,0,2.3C296.4,336.9,296.4,338.5,296.4,340.1z"/>
		<path class="st2" d="M346.1,304.3c0.2,0,0.3,0,0.4,0.1c0.5,0,1.1-0.1,1.6-0.1c0.1,0,0.2,0,0.3,0c0.6,0,1.4,0,2.1,0.1
			c0.7,0,1.5,0.1,2.5,0.3c0.4,0.1,0.8,0.1,1.2,0.2c0.3,0,0.5,0.1,0.8,0.1c0.8,0.1,1.5,0.2,2.2,0.4c2.6,0.5,5.7,1.2,8.6,2.3
			c0.7,0.3,1.5,0.6,2.2,1c1,0.6,2.2,1.4,3,2.4c0.5,0.6,1,1.2,1.6,2.1c0.5,0.7,0.9,1.3,1.1,1.8l0.6,1.1c0.5,1,1,2,1.5,3.1
			c0.3,0.7,0.6,1.4,0.9,2.3c0.2,0.7,0.5,1.5,0.7,2.2c0.3,1.2,0.5,2.2,0.5,3.3l0,0.1c0,0.3,0,0.7,0,1c0,1.2-0.1,2.5-0.5,3.7
			c-0.2,0.7-0.5,1.4-0.8,2c-0.1,0.2-0.2,0.4-0.3,0.7c-0.2,0.5-0.4,1-0.7,1.5c-0.2,0.3-0.4,0.5-0.6,0.8c-0.2,0.3-0.5,0.6-0.7,0.9
			c-0.8,0.9-1.7,1.6-2.6,2.2c-0.7,0.5-1.3,0.8-2,1.1c-0.8,0.4-1.6,0.7-2.3,1c-0.8,0.3-1.6,0.5-2.2,0.6c-1.7,0.4-3.6,0.5-5.9,0.5
			c-1.2,0-2.4,0-3.4-0.1l-0.8,0c-1.1,0-2.3-0.1-3.5-0.1c-0.5,0-1.1,0-1.6,0l0.6,0.7l0.1,0.1c0.4,0.5,0.9,1.1,1.3,1.6l0.3,0.4
			c1.2,1.6,2.3,3,3.2,4.3c0.6,0.8,1.1,1.7,1.7,2.5c0.3,0.5,0.6,0.9,1,1.4c0.8,1.1,1.6,2.3,2.7,3.8c0.5,0.7,1,1.3,1.5,2
			c1.2,1.6,2.4,3.3,3.7,5l0-0.1l0.1,0.2l0,0l0,0l0,0l0,0l0,0c1.4,1.8,3,3.9,4.7,6c0.8,1,1.6,2,2.4,2.9c0.3,0.3,0.5,0.6,0.8,0.9
			l0.5,0.5c0.1,0.1,0.3,0.3,0.4,0.4c0.3,0.3,0.6,0.7,0.9,1c0,0,0,0,0,0s0,0,0,0c0,0,0,0,0,0c0.2,0.2,0.4,0.4,0.4,0.7
			c0.1,0.4,0,0.8-0.1,1.1c-0.2,0.3-0.5,0.6-0.8,0.6c-0.1,0-0.3,0.1-0.4,0.1c-0.3,0-0.5-0.1-0.7-0.2c-0.4-0.3-0.8-0.7-1.2-1.2
			c-0.1-0.1-0.2-0.3-0.3-0.4l-0.5-0.6c-0.8-0.9-1.5-1.8-2.3-2.7c-0.9-1.1-1.8-2.2-2.6-3.3l-0.2-0.2c-1.7-2.2-3.7-4.8-5.7-7.4
			c-0.5-0.6-0.9-1.2-1.4-1.9c-0.4-0.6-0.9-1.2-1.3-1.8l-0.4-0.6c-0.7-0.9-1.4-1.9-2.1-2.8c-0.3-0.5-0.7-1-1-1.5
			c-0.5-0.8-1-1.5-1.6-2.3l-0.3-0.4c-0.3-0.4-0.6-0.9-1-1.4l-0.5-0.7c-0.3-0.4-0.6-0.9-1-1.3c-0.3-0.4-0.7-0.8-1-1.3
			c-0.1-0.1-0.2-0.3-0.3-0.4c-0.2-0.3-0.4-0.5-0.6-0.8l-0.5-0.5c-0.4-0.4-0.7-0.8-1.1-1.2c0,1.8,0,3.8,0,5.7c0,0.5,0,1,0,1.4
			c0,1,0,2,0,2.9c0,1.7,0.1,3.2,0.1,4.7c0,0.7,0.1,1.4,0.1,2.1c0,0.7,0.1,1.5,0.1,2.2c0,0.9,0,1.7,0.1,2.6c0,0.6,0,1.2,0,1.8l0,0.3
			c0,1.4,0.1,2.8,0.2,4.1c0,0.8,0.1,1.5,0.1,2.2c0,0.4,0,0.7,0,1.1l0,0.2c0,0.3,0,0.6,0,0.8c0,0.4-0.2,0.7-0.4,1
			c-0.3,0.3-0.6,0.4-1,0.4c-0.3,0-0.6-0.1-0.9-0.3c-0.1,0-0.2,0-0.3,0c-0.6,0.1-1.5,0.2-2.4,0.2c-0.7,0-1.4,0.1-2.1,0.1l-0.5,0
			l-0.1,0c-0.7,0-1.4-0.7-1.4-1.4c0-0.1,0-0.2,0-0.3c-0.1-1.1-0.1-2.1-0.1-3.2l0-0.3c0-0.7,0-1.4,0-2.1c0-0.5,0-1.1,0-1.6
			c0-1.4,0-2.8,0.1-4.2c0-1.1,0.1-2.3,0.1-3.4c0-1.6,0-3.2,0-4.8c0-0.6,0-1.2,0-1.7c0-0.9,0-1.7,0-2.6c0-2.1,0-4.2,0-6.3v-2.5
			c0-1.5,0-3,0-4.4c0-4.5,0-9.1,0-13.7c0.1-6.1,0-12.4-0.2-19.1c0-0.4,0.1-0.7,0.4-1c0.3-0.3,0.6-0.4,1-0.4c0.2,0,0.4,0,0.6,0.1
			c0.7-0.1,1.5-0.3,2.2-0.4l0.4-0.1C344.6,304.4,345.3,304.3,346.1,304.3C346.1,304.3,346.1,304.3,346.1,304.3z M359,340.4
			L359,340.4L359,340.4l0.3,0l0.3,0c0.6,0,1.1,0,1.7,0c0.1,0,0.2,0,0.4,0c0.2,0,0.5,0,0.7-0.1l0.4,0l0.4,0l0.3-0.1
			c0.6-0.1,1.1-0.2,1.7-0.3c0.1,0,0.2-0.1,0.3-0.1c0.2-0.1,0.5-0.1,0.7-0.2l0.5-0.2l0.4-0.1c0.6-0.2,1.1-0.5,1.7-0.8
			c0.7-0.4,1.4-0.8,2.1-1.3c0.5-0.4,1-0.9,1.4-1.3c0.3-0.3,0.5-0.6,0.8-1c0.3-0.4,0.5-0.8,0.7-1.2l0.1-0.3c0.1-0.3,0.3-0.7,0.4-1
			c0.3-0.8,0.6-1.5,0.8-2.4c0.1-0.5,0.1-1.1,0.1-1.8c0-0.7,0-1.4-0.1-2.1c-0.2-1-0.5-2-0.7-2.9c-0.1-0.2-0.1-0.4-0.2-0.6
			c-0.2-0.7-0.4-1.3-0.7-1.9c-0.4-0.9-0.9-1.9-1.3-2.8l-0.4-0.7c-0.3-0.6-0.6-1.3-1.1-1.9c-0.3-0.5-0.7-1-1-1.4
			c-0.5-0.6-1-1.2-1.6-1.7c-0.5-0.4-1-0.7-1.5-1c-0.4-0.2-0.8-0.4-1.2-0.6l0,0l-0.2-0.1c-0.4-0.2-0.9-0.3-1.3-0.5
			c-0.6-0.2-1.2-0.4-1.8-0.6c-1.1-0.3-2.3-0.6-3.3-0.8c-1.2-0.3-2.4-0.5-3.5-0.7l-0.5-0.1c-0.9-0.1-1.8-0.3-2.6-0.4
			c-1-0.1-2.2-0.2-3.5-0.2c-0.2,0-0.3,0-0.5,0c-0.2,0-0.5,0-0.7,0v16.3c0,2.9,0,5.9,0,8.8c0,2.6,0,5.2,0,7.8c2.8,0,5.4,0.1,7.9,0.2
			C356.5,340.3,357.7,340.4,359,340.4z"/>
		<path class="st2" d="M425,305c0.7,0,1.3,0.7,1.3,1.4c0,0.4-0.2,0.7-0.4,1c-0.3,0.3-0.6,0.4-1,0.4c-1.4,0.1-2.7,0.1-4,0.2
			c-0.5,0-1.1,0-1.8,0c-0.3,0-0.6,0-1,0c-0.3,0-0.6,0-1,0h-2.2c-1.8,0-3.6,0-5.4,0c-2.8,0-6,0-9.2,0.2c-0.7,0-1.5,0.1-2.2,0.1
			l-0.9,0.1c0,1.7,0,3.4,0.1,5c0,1.9,0,3.7,0,5.6c0,1,0,2.1,0,3.1c0,1.4,0,3,0,4.6c0,1.1-0.1,2.3-0.1,3.4l0,1.1
			c-0.1,1.4-0.1,2.8-0.1,4.4c0,0.7,0,1.4,0,2.1c0,0.8,0,1.5,0,2.3v0.1l0,0.1c0.1,0,0.1,0.1,0.2,0.1c3-0.2,6-0.4,9.6-0.7
			c0,0,0,0,0.1,0c0.3,0,0.7,0.2,0.9,0.4c0.3,0.3,0.4,0.6,0.4,1c0,0.4-0.2,0.7-0.4,1c-0.3,0.3-0.6,0.4-1,0.4
			c-2.9,0.2-6.4,0.5-9.8,0.7c0,0.4,0,0.9,0,1.3v0.3c0,1.3,0,2.6,0.1,4c0.2,3.4,0.3,6.4,0.4,9.2c0,1,0.1,2.1,0.1,3.1
			c0,0.5,0,0.9,0.1,1.4l0,0.6c0,1.2,0.1,2.4,0.2,3.5l0.1,0.5c0.1,0.7,0.2,1.4,0.3,2.1c0.1,1,0.2,1.9,0.3,2.7
			c0.1,0.7,0.1,1.6,0.2,2.4c0,0.3,0,0.6,0,0.9c0,0.2,0,0.5,0,0.7c0.7,0,1.3-0.1,2-0.1c0.3,0,0.7,0,1,0c0.7,0,1.3-0.1,2-0.1
			c0.4,0,0.9,0,1.3-0.1c1.8-0.1,3.5-0.2,5.2-0.2c1.1-0.1,2.2-0.1,3.3-0.2c2.9-0.1,5.9-0.4,8.8-0.6l0.2,0c0,0,0,0,0.1,0
			c0.3,0,0.7,0.2,0.9,0.4c0.3,0.3,0.4,0.6,0.4,1c0,0.4-0.2,0.7-0.4,1c-0.3,0.3-0.5,0.4-1,0.4c-1.7,0.1-3.8,0.3-5.8,0.5
			c-1.6,0.1-3.3,0.2-4.9,0.3l-0.5,0c-3.6,0.2-6.3,0.3-8.9,0.4c-0.6,0-1.2,0.1-1.8,0.1c-0.9,0-1.8,0.1-2.6,0.1
			c-1.4,0.1-2.7,0.2-4.3,0.4c-0.5,0.1-0.9,0.1-1.4,0.2c-0.1,0-0.2,0.1-0.4,0.1s-0.3,0-0.4-0.1l-0.3-0.1c-0.3-0.2-0.6-0.5-0.6-0.8
			c-0.1-0.4-0.1-0.7,0.1-1.1c-0.1-0.1-0.2-0.1-0.2-0.2c-0.3-0.3-0.4-0.6-0.4-1c-0.1-1.7-0.2-3.4-0.2-5c0-0.6,0-1.3-0.1-1.9
			c0-1.2-0.1-2.4-0.1-3.6c0-0.7-0.1-1.3-0.1-2c0-0.5-0.1-0.9-0.1-1.4c0-0.6-0.1-1.2-0.1-1.8c-0.1-0.9-0.1-1.9-0.1-2.9
			c-0.1-1.3-0.1-2.8-0.2-4.4c-0.1-2.8-0.1-5.6-0.1-8.4l0-0.9l0-1.1c0-2.6,0-5.3,0.1-7.9c0-0.4,0-0.9,0-1.3c0-1.1,0.1-2.2,0.1-3.3
			c0-1.4,0-2.9,0-4.4c0-1.6-0.1-3.2-0.1-4.7c0-0.8-0.1-1.6-0.1-2.4c0-0.6-0.1-1.3-0.1-1.9c-0.1-1.5-0.1-3-0.2-4.5c0-1.6,0-3.3,0-5.5
			c0-0.8,0.6-1.4,1.4-1.4c0.3,0,0.6,0.1,0.8,0.3c0,0,0,0,0.1,0l0.3,0v0l0,0l0.3-0.1c1.3-0.3,2.7-0.6,4.1-0.8c0,0,0.1,0,0.1,0
			c0.3,0,0.7,0.2,0.9,0.4c0.1,0.1,0.1,0.1,0.1,0.2c0.6,0,1.2-0.1,1.8-0.1l0.6,0c2.4-0.1,4.9-0.2,7.8-0.2c2.6,0,5.1,0,7.9,0h1
			c0.4,0,0.9,0,1.3,0c0.4,0,0.9,0,1.3,0c0.6,0,1.3,0,1.9,0C421.7,305.2,423.1,305.1,425,305C424.9,305,425,305,425,305z"/>
		<path class="st2" d="M439.1,305.5c0.5,0,1,0.1,1.6,0.1c0.8,0,1.6,0.1,2.3,0.1c1,0,2,0.1,3,0.1l0.7,0c1.2,0,2.4,0.1,3.8,0.1
			c1.9,0.1,3.8,0.1,5.7,0.2c1,0,2.1,0.1,3.1,0.1c1.9,0.1,3.9,0.1,5.7,0.1l1.3,0l1.3,0c0.8,0,1.4,0.6,1.4,1.4c0,0.8-0.6,1.4-1.4,1.4
			c-0.5,0-1,0-1.5,0c-0.5,0-1,0-1.5,0c-1.2,0-2.5,0-3.9,0c-0.9,0-1.8-0.1-2.7-0.1l-1.1,0c-0.7,0-1.5,0-2.2-0.1
			c-0.2,3.8-0.2,7.6-0.2,11.3c0,1.4,0,2.8,0,4.3c-0.1,6.4-0.1,12.8-0.1,18.1c0,0.4,0,0.8,0,1.2c0,1.1,0,2.2,0,3.2
			c0,1.5,0.1,3,0.2,4.6c0.1,1.3,0.2,2.6,0.2,3.9c0.1,1.7,0.2,3.4,0.3,5c0,0.9,0.1,1.8,0.1,2.7c0,0.6,0,1.1,0.1,1.7
			c0,1.4,0.1,2.9,0.2,4.4c0.2,2.9,0.4,5.4,0.7,7.8l0,0.1c0.1,0.2,0.1,0.5,0,0.8l-0.1,0.3c0,0,0,0,0,0.1c-0.1,0.7-0.7,1.3-1.3,1.3
			c0,0,0,0-0.1,0c-0.6,0-1.2-0.1-1.8-0.1l-0.8-0.1c-0.9-0.1-1.7-0.1-2.5-0.1c-0.1,0-0.2,0-0.3,0c-0.8,0-1.4-0.6-1.4-1.4
			c0-0.1,0-0.2,0-0.3c0-0.1,0-0.2,0-0.3l0-0.1c0-0.1,0-0.2,0-0.3l0-0.1c0-0.3,0-0.5,0-0.8c0-0.4,0-0.9,0-1.3l0-0.6l0-1.5
			c0-0.8,0-1.7,0-2.5c0-1.3-0.1-2.6-0.1-3.8l0-0.5c0-1.1-0.1-2.2-0.2-3.4c-0.1-1.6-0.2-3-0.2-4.4c0-0.8,0-1.6,0-2.3
			c0-0.6,0-1.2,0-1.8c0-0.8-0.1-1.7-0.1-2.5c0-0.6,0-1.1-0.1-1.7c0-0.8,0-1.5-0.1-2.3c0-0.7,0-1.4-0.1-2.1c0-1.3-0.1-2.7-0.2-4
			l0-0.9c0-1.2-0.1-2.3-0.1-3.5l0-1c-0.1-1.9-0.1-3.8-0.2-5.6c0-1.1-0.1-2.1-0.1-3.2c0-0.6-0.1-1.2-0.1-1.9
			c-0.1-2.4-0.2-4.9-0.2-7.4c0-1.4,0-2.9,0.1-4.8c0-1.4,0.1-2.8,0.3-4.4c-0.6,0-1.1,0-1.7,0c-1,0-1.9-0.1-2.9-0.1
			c-0.4,0-0.9,0-1.3-0.1c-1.7-0.1-3.3-0.1-5.1-0.2c-0.8,0-1.4-0.6-1.4-1.4c0-0.8,0.6-1.4,1.4-1.4h0
			C436.4,305.4,437.8,305.4,439.1,305.5z"/>
		<path class="st2" d="M481.3,305.4c0.3,0,0.7,0.1,0.9,0.4c1,0,2.1-0.1,3.5-0.1c0.2,0,0.5,0,0.7,0c0.6,0,1.2-0.1,1.8-0.1
			c0.2,0,0.4,0,0.6,0c0.6,0,1.1,0.4,1.3,0.9c0.3,0.3,0.4,0.6,0.4,1c0,2.8-0.1,5.7-0.1,9.1c0,0.9,0,1.7,0,2.6c0,2,0,4,0,6
			c0,1.2-0.1,2.3-0.1,3.5l0,0.8l-0.1,2c0,0.9-0.1,1.7-0.1,2.6c0,1.2-0.1,2.5-0.1,3.7c0,1.7-0.1,3.5-0.2,5.2c0,0.5-0.1,0.9-0.1,1.4
			c-0.1,1-0.1,2.1-0.2,3.1c-0.1,1.5-0.1,3-0.1,4.4c0,1.7,0,3.4,0.1,5.1c0,1.3,0.1,2.6,0.1,3.9c0,1.4,0,2.8,0,4.1c0,1.5,0,3.1,0,4.7
			l0,0.8c0,1.2,0,2.3,0.1,3.5c0,0.7,0,1.4,0,2c0,0.2,0,0.4,0,0.6c0,0.5,0,1,0,1.5c0,0.8-0.6,1.4-1.4,1.4c-0.1,0-0.1,0-0.2,0
			c-0.3,0.3-0.6,0.5-1,0.5l0,0c-0.2,0-0.5,0-0.7,0c-0.4,0-0.9,0-1.3,0c-0.2,0-0.4,0-0.6,0c-1,0-2,0-3,0.1c-0.7,0-1.4-0.6-1.4-1.4
			c0-0.1,0-0.1,0-0.2c0-0.1,0-0.1,0-0.2c0-0.4-0.1-0.9-0.1-1.3c-0.1-1.3-0.1-2.6-0.1-3.9l0-0.2c0-1.5,0-3,0-4.3v-25.7v-5.1
			c0-4.2,0-8.5,0-12.7c0-3,0-5.9,0-8.9c0-3.4,0-6.4-0.2-9.3c0-0.3,0.1-0.7,0.4-1C480.5,305.6,480.9,305.4,481.3,305.4z"/>
		<path class="st2" d="M503,305C503,305,503,305,503,305c0.1,0,0.2,0,0.4,0c0.3,0.1,0.7,0.1,1,0.1c0.6,0.1,1.2,0.1,1.8,0.1l0.3,0
			c0.4,0,0.7,0,1.1,0.1c0.4,0.1,0.7,0.2,1,0.3c0.1,0,0.3-0.1,0.5-0.1c0.5,0,1,0.3,1.2,0.7l0.1,0.3c0.3,0.5,0.5,1,0.8,1.6l0.4,0.8
			c0.6,1.1,1.1,2.3,1.6,3.4c0.7,1.7,1.4,3.2,2.1,4.8c0.3,0.8,0.7,1.6,1,2.4c0.8,2,1.7,4,2.5,6.1c1,2.4,2.1,4.9,3.1,7.3l0.6,1.4
			c0.4,1,0.8,2,1.3,3c0.9,2.2,1.9,4.4,2.8,6.6c0.3,0.8,0.6,1.6,1,2.4c0.2,0.6,0.4,1.1,0.7,1.7c0.6,1.5,1.2,2.9,1.8,4.4
			c0.4,1,0.8,2,1.2,3c0.7,1.6,1.3,3.3,2,5l0.1,0.3c0.7,1.5,1.3,2.9,1.9,4.1c0.3,0.7,0.7,1.4,1,2c0.2,0.5,0.5,0.9,0.7,1.4
			c-0.2-1.1-0.3-1.9-0.3-2.7c-0.1-1.2-0.2-2.3-0.2-3.7c0-0.6,0-1.2-0.1-1.9c0-0.8-0.1-1.7-0.1-2.5c0-1-0.1-2.1-0.1-3.1l-0.1-1.5
			c-0.1-2.9-0.3-6-0.2-8.9c0-1.4,0-2.9,0.1-4.4c0-1,0.1-2,0.1-3c0-0.5,0-1,0.1-1.5c0.1-1.2,0.1-2.4,0.2-3.6c0.1-1.9,0.2-3.9,0.3-5.9
			c0-0.6,0-1.2,0.1-1.8c0-0.9,0-1.8,0.1-2.7l0.1-1.2c0-1.1,0.1-2.2,0.1-3.3c0.1-3,0.2-6.2,0.2-10.1c0-0.8,0.6-1.4,1.4-1.4
			c0.4,0,0.7,0.2,1,0.4s0.4,0.6,0.4,1c0,1.6,0,3.6-0.1,5.6c0,1.4-0.1,3-0.1,4.7c0,0.6-0.1,1.2-0.1,1.9c0,0.8-0.1,1.6-0.1,2.4
			c0,0.8,0,1.5-0.1,2.3c0,0.8,0,1.6-0.1,2.4c-0.1,1.6-0.1,3.2-0.2,4.8c-0.1,1.3-0.1,2.6-0.2,3.9l0,0.7c0,0.5,0,1-0.1,1.5
			c0,1-0.1,2-0.1,3c-0.1,2.9-0.1,5.9,0,8.8c0.1,1.7,0.1,3.5,0.2,5.2c0.1,1.3,0.1,2.5,0.2,3.8c0,0.8,0.1,1.6,0.1,2.3
			c0.1,2.1,0.1,4.3,0.4,6.4c0.3,1.8,0.6,3.5,0.9,5c0.1,0.4,0.2,0.7,0.3,1.1c0.4,1.5,0.7,3,0.8,4.5c0,0.4-0.2,0.8-0.4,1
			c-0.1,0.1-0.3,0.2-0.5,0.3c-0.2,0.3-0.5,0.6-0.8,0.6c-0.1,0-0.2,0-0.4,0c-0.3,0-0.5-0.1-0.7-0.2c-0.3-0.2-0.5-0.4-0.6-0.8
			c-0.4-1.2-0.8-2.3-1.3-3.3c-0.5-1.1-1-2.2-1.5-3.3l-0.3-0.7c-0.4-1-0.9-1.9-1.4-2.8c-0.2-0.4-0.4-0.8-0.6-1.1
			c-0.5-1-1-2.1-1.5-3.2c-0.1-0.3-0.2-0.5-0.4-0.8c-0.6-1.4-1.2-2.9-1.7-4.1l-0.7-1.6c-0.4-0.9-0.7-1.8-1.1-2.7
			c-0.2-0.5-0.4-0.9-0.6-1.4c-0.4-0.9-0.7-1.7-1.1-2.6c-0.3-0.9-0.7-1.7-1-2.6c-0.2-0.6-0.5-1.3-0.7-1.9c-0.5-1.3-1.1-2.7-1.6-3.9
			l-0.9-2c-0.6-1.5-1.3-2.9-1.9-4.4c-0.6-1.4-1.2-2.7-1.7-4.1c-0.4-0.9-0.7-1.7-1.1-2.6c-0.9-2.1-1.8-4.3-2.7-6.5
			c-0.5-1.1-0.9-2.2-1.4-3.4c-0.3-0.8-0.7-1.6-1-2.4l-0.3-0.7l-0.6-1.3c-0.1-0.2-0.2-0.4-0.3-0.6c-0.1-0.3-0.3-0.7-0.5-1.1
			c0,0.3,0,0.6,0,0.9c0,2.9,0,6,0.1,9.1c0,0.8,0,1.6,0,2.4c0,2.1,0.1,4.2,0.1,6.3l0,3.5c0,1.9,0,3.8,0,5.7c0,3.1,0,6.2,0,9.1
			c0,3.4,0.1,6.2,0.3,8.8c0.1,1.3,0.2,2.9,0.4,4.4c0.1,0.7,0.1,1.3,0.2,2c0.1,0.8,0.2,1.6,0.2,2.4l0,0.3c0.1,0.6,0.1,1.1,0.1,1.7
			c0,0.6,0.1,1.4,0.2,2.2c0.1,0.8,0.2,1.5,0.2,2.1c0,0.4,0.1,0.7,0.1,1.1l0,0.1c0,0.3,0,0.6,0,0.8c0,0.3-0.1,0.5-0.2,0.7l-0.1,0.1
			c0,0.2,0,0.4,0,0.5c-0.1,0.4-0.3,0.7-0.6,0.8c-0.2,0.1-0.5,0.2-0.7,0.2c-0.1,0-0.2,0-0.4-0.1l0,0c-0.1,0-0.2,0-0.2,0
			c-0.3,0-0.6,0-0.8,0c-0.2,0-0.3,0-0.5,0c-0.4,0-0.8,0-1.2,0c-1.3,0-2.4,0.1-3.3,0.1c-0.4,0-0.9-0.2-1.1-0.6
			c-0.1,0-0.1-0.1-0.2-0.2c-0.3-0.3-0.4-0.7-0.4-1c0-0.1,0-0.3,0-0.4c0-0.2-0.1-0.4-0.1-0.7c0-0.2-0.1-0.5-0.1-0.7
			c-0.1-0.6-0.1-1.3-0.2-1.9l0-0.2l0-0.6c0-0.4-0.1-0.9-0.1-1.3c0-0.5,0-1,0-1.4l0-0.4c0-1.2,0-2.5-0.1-3.7l0-0.4c0-0.7,0-1.5,0-2.2
			c0-0.5,0-1,0-1.6c-0.1-2.7,0-5.4,0-8.4c0-2.2,0-4.5-0.1-6.7c0-0.8,0-1.6-0.1-2.4c0-1.6-0.1-3.2-0.1-4.7c-0.1-1.4-0.1-2.9-0.1-4.4
			c-0.1-2.4,0-4.9,0-7.3c0-0.6,0-1.2,0-1.9c0-1.4,0-2.7,0-4.1c0-1.6,0-3.3,0-5c0-3,0-6.1-0.1-9.3c0-0.3,0.1-0.7,0.3-0.9
			c0.1-0.4,0.3-0.7,0.6-0.8C502.5,305.1,502.7,305,503,305z"/>
		<path class="st2" d="M587.9,378.8c-0.1,0-0.2,0-0.4,0c-0.6,0-1.2-0.4-1.4-1c-0.2-0.8-0.3-1.6-0.5-2.3l0-0.2
			c-0.1-0.4-0.2-0.8-0.2-1.2c-0.1-0.4-0.2-0.8-0.2-1.2c-0.3-1.7-0.6-3.5-1-5.3c-0.5-2.9-0.9-5.9-1.3-9.2c-0.2-1.4-0.3-2.8-0.5-4.2
			c-0.2-1.5-0.4-3-0.5-4.4c-0.2-1.6-0.5-3.3-0.7-5c-0.1-0.5-0.2-1-0.2-1.5l-0.1,0l-0.1,0c-0.2,0-0.4,0-0.7,0c-0.2,0-0.4,0-0.5,0
			l-0.3,0c-0.5,0-1,0-1.4,0h-0.2c-0.9,0-1.8,0-2.7,0.1l-0.3,0l-0.3,0c-0.8,0-1.7,0.1-2.5,0.1l-0.3,0c-0.8,0-1.6,0-2.7,0
			c-0.1,0.5-0.2,1.1-0.3,1.6l-0.2,1c-0.5,2.6-1.1,5.4-1.6,8.1c-0.6,3.4-1.1,6.3-1.5,9l-0.2,1.1c-0.4,2.4-0.8,5-1.1,7.4
			c-0.2,1.6-0.4,3.3-0.6,4.9c0,0.3-0.1,0.5-0.2,0.7l-0.2,0.2l0,0.1c-0.3,0.3-0.6,0.4-1,0.4c-0.2,0-0.3,0-0.5-0.1
			c-0.4,0.1-0.9,0.2-1.3,0.3c-0.1,0-0.3,0-0.4,0.1c-0.7,0.1-1.4,0.2-2,0.2c-0.1,0-0.1,0-0.2,0c-0.6,0-1.2-0.1-1.8-0.2l-0.1,0l-0.1,0
			c-0.4,0-0.8-0.1-1.1-0.2c-0.2,0-0.5-0.1-0.8-0.2c-0.3-0.1-0.5-0.2-0.8-0.4c-0.2-0.1-0.4-0.3-0.4-0.5c-0.1-0.2-0.2-0.5-0.3-0.8
			c0-0.2-0.1-0.4-0.1-0.5l0-0.1c0-0.1,0-0.3,0-0.4c0-0.3,0-0.6,0.1-0.9c0.1-0.7,0.2-1.4,0.4-2.3l0.2-1.3c0.2-1,0.4-2,0.5-3
			c0.1-0.4,0.1-0.8,0.2-1.2c0.2-1,0.4-2.1,0.6-3.2c0.3-1.5,0.6-3,0.9-4.4c0.4-1.8,0.8-3.7,1.2-5.5c0.2-1.1,0.5-2.2,0.7-3.2
			c0.2-0.7,0.3-1.5,0.4-2.2c0.1-0.7,0.3-1.4,0.4-2c0.3-1.5,0.6-2.9,0.9-4.3c0.2-1,0.5-2,0.7-3c0.4-1.9,0.9-3.9,1.4-5.8
			c0.8-3.3,1.5-6.1,2.2-8.7c0.1-0.5,0.3-1,0.4-1.5c0.2-0.9,0.5-1.8,0.7-2.7c0.3-1,0.5-2,0.7-3c0.1-0.4,0.2-0.8,0.3-1.2
			c0.2-1.1,0.5-2.1,0.8-3.2c0.5-1.9,0.9-3.9,1.4-5.9c-0.1-0.2-0.1-0.4-0.1-0.6c0-0.8,0.6-1.4,1.4-1.4l1,0c0.7,0,1.4,0,2.1,0h0.2
			c0.5,0,1,0,1.5,0c0.1,0,0.2,0,0.3,0c0.6,0,1.2,0,1.7,0.2c0.2,0.1,0.4,0.2,0.6,0.4l0.2,0.2l0,0.1c0.1,0.1,0.1,0.2,0.1,0.3
			c0.4,0.2,0.6,0.5,0.7,0.9c0.3,1.4,0.6,2.8,1,4.2c0.3,1.2,0.6,2.5,0.8,3.7c0.2,0.9,0.4,1.9,0.7,2.8c0.3,1.4,0.7,2.9,1,4.4
			c0.2,1.2,0.4,2.4,0.6,3.5c0,0.3,0.1,0.6,0.2,0.9c0,0.3,0.1,0.6,0.1,0.8l0.1,0.4c0,0.1,0,0.2,0.1,0.4c0,0.1,0,0.2,0,0.3
			c0,0,0,0.1,0,0.1l0.1,0.4c0,0.1,0,0.1,0,0.2c0,0.1,0,0.2,0,0.3c0.1,0.8,0.2,1.7,0.3,2.5c0.1,0.6,0.1,1.2,0.2,1.7
			c0.4,3,0.8,6,1.3,8.9c0.2,1.4,0.4,2.7,0.6,4.1l0.1,0.5c0.2,1.5,0.4,3.1,0.6,4.7c0.1,1,0.2,2,0.4,3c0.2,1.9,0.5,3.9,0.7,5.8
			c0.4,2.7,0.8,5.6,1.3,8.5l0.1,0.4c0.2,1.3,0.5,2.6,0.7,3.9c0.1,0.7,0.3,1.4,0.4,2.1c0.1,0.7,0.3,1.4,0.4,2
			C589.1,377.8,588.7,378.6,587.9,378.8z M580.4,340.5c-0.1-0.3-0.1-0.6-0.1-1c-0.1-0.8-0.2-1.7-0.4-2.5c-0.1-0.7-0.2-1.4-0.3-2.1
			c-0.2-1.3-0.3-2.5-0.5-3.8l-0.1-0.8l-0.1-0.4c0-0.2-0.1-0.5-0.1-0.7c0-0.1,0-0.2,0-0.4c0-0.1,0-0.2,0-0.3l0-0.1c0-0.1,0-0.2,0-0.3
			l0,0c0-0.1,0-0.2,0-0.2c-0.1-0.8-0.2-1.6-0.4-2.3c-0.2-1.5-0.5-3-0.8-4.5c-0.2-1-0.5-2-0.7-3c-0.1-0.5-0.2-1-0.4-1.4
			c-0.4-1.5-0.7-3-1-4.2c-0.4,2-0.8,3.9-1.2,5.9l-0.2,0.8c-0.5,2.7-1.1,5.5-1.7,8.2c-0.4,1.9-0.9,3.7-1.3,5.6
			c-0.3,1.2-0.6,2.4-0.8,3.6c-0.3,1.3-0.6,2.7-0.9,4.2c0.7,0,1.5,0,2.2,0l0.2,0h0c0.8,0,1.7,0,2.5-0.1l0.2,0c1.1,0,2.1-0.1,3.2-0.1
			c0.5,0,1,0,1.6,0l0.2,0c0.2,0,0.4,0,0.5,0C580.2,340.5,580.3,340.5,580.4,340.5z"/>
	</g>
</g>
</svg>
